<?xml version="1.0" encoding="UTF-8" standalone="no"?>
<svg
   width="100px"
   height="px"
   viewBox="0 0 100 100"
   version="1.1"
   id="svg35"
   sodipodi:docname="lab-stroke.svg"
   inkscape:version="1.1.2 (0a00cf5339, 2022-02-04)"
   xmlns:inkscape="http://www.inkscape.org/namespaces/inkscape"
   xmlns:sodipodi="http://sodipodi.sourceforge.net/DTD/sodipodi-0.dtd"
   xmlns="http://www.w3.org/2000/svg"
   xmlns:svg="http://www.w3.org/2000/svg">
  <defs
     id="defs39" />
  <sodipodi:namedview
     id="namedview37"
     pagecolor="#ffffff"
     bordercolor="#111111"
     borderopacity="1"
     inkscape:pageshadow="0"
     inkscape:pageopacity="0"
     inkscape:pagecheckerboard="1"
     showgrid="false"
     inkscape:zoom="4.85"
     inkscape:cx="44.845361"
     inkscape:cy="42.164948"
     inkscape:window-width="1280"
     inkscape:window-height="672"
     inkscape:window-x="0"
     inkscape:window-y="20"
     inkscape:window-maximized="1"
     inkscape:current-layer="svg35" />
  <g
     id="surface1"
     style="stroke:#fdffff;stroke-opacity:1;fill:none">
    <path
       style="stroke:#fdffff;fill-rule:nonzero;fill:none;fill-opacity:1;stroke-opacity:1"
       d="M 24.609375 3.4375 C 21.816406 4.453125 20.117188 7.03125 20.371094 9.863281 C 20.585938 12.128906 21.679688 13.789062 23.671875 14.863281 C 24.785156 15.46875 25.039062 15.527344 26.5625 15.527344 C 28.105469 15.527344 28.320312 15.46875 29.492188 14.824219 C 34.003906 12.34375 33.828125 5.917969 29.199219 3.730469 C 27.929688 3.125 25.839844 2.988281 24.609375 3.4375 Z M 27.792969 6.523438 C 29.824219 7.363281 30.292969 9.941406 28.710938 11.523438 C 27.421875 12.8125 25.664062 12.832031 24.394531 11.542969 C 21.972656 9.140625 24.648438 5.195312 27.792969 6.523438 Z M 27.792969 6.523438 "
       id="path2" />
    <path
       style="stroke:#fdffff;fill-rule:nonzero;fill:none;fill-opacity:1;stroke-opacity:1"
       d="M 46.875 3.378906 C 45.917969 3.691406 44.277344 5.371094 43.984375 6.367188 C 43.4375 8.203125 43.828125 9.667969 45.214844 11.035156 C 46.210938 12.050781 47.207031 12.5 48.4375 12.5 C 50.859375 12.5 53.125 10.234375 53.125 7.8125 C 53.125 6.582031 52.675781 5.585938 51.660156 4.589844 C 50.292969 3.203125 48.691406 2.8125 46.875 3.378906 Z M 49.511719 6.738281 C 50.488281 7.695312 49.804688 9.375 48.4375 9.375 C 47.636719 9.375 46.875 8.613281 46.875 7.8125 C 46.875 7.011719 47.636719 6.25 48.4375 6.25 C 48.808594 6.25 49.21875 6.425781 49.511719 6.738281 Z M 49.511719 6.738281 "
       id="path4" />
    <path
       style="stroke:#fdffff;fill-rule:nonzero;fill:none;fill-opacity:1;stroke-opacity:1"
       d="M 59.863281 3.613281 L 59.375 4.082031 L 59.375 54.6875 L 62.5 54.6875 L 62.5 6.25 L 82.8125 6.25 L 82.8125 28.125 L 85.9375 28.125 L 85.9375 4.082031 L 85.449219 3.613281 L 84.980469 3.125 L 60.332031 3.125 Z M 59.863281 3.613281 "
       id="path6" />
    <path
       style="stroke:#fdffff;fill-rule:nonzero;fill:none;fill-opacity:1;stroke-opacity:1"
       d="M 90.625 3.378906 C 89.667969 3.691406 88.027344 5.371094 87.734375 6.367188 C 87.1875 8.203125 87.578125 9.667969 88.964844 11.035156 C 89.960938 12.050781 90.957031 12.5 92.1875 12.5 C 94.609375 12.5 96.875 10.234375 96.875 7.8125 C 96.875 6.582031 96.425781 5.585938 95.410156 4.589844 C 94.042969 3.203125 92.441406 2.8125 90.625 3.378906 Z M 93.261719 6.738281 C 93.574219 7.03125 93.75 7.441406 93.75 7.8125 C 93.75 8.183594 93.574219 8.59375 93.261719 8.886719 C 92.96875 9.199219 92.558594 9.375 92.1875 9.375 C 91.816406 9.375 91.40625 9.199219 91.113281 8.886719 C 90.800781 8.59375 90.625 8.183594 90.625 7.8125 C 90.625 7.441406 90.800781 7.03125 91.113281 6.738281 C 91.40625 6.425781 91.816406 6.25 92.1875 6.25 C 92.558594 6.25 92.96875 6.425781 93.261719 6.738281 Z M 93.261719 6.738281 "
       id="path8" />
    <path
       style="stroke:#fdffff;fill-rule:nonzero;fill:none;fill-opacity:1;stroke-opacity:1"
       d="M 7.421875 9.6875 C 4.628906 10.703125 2.929688 13.28125 3.183594 16.113281 C 3.398438 18.378906 4.492188 20.039062 6.484375 21.113281 C 7.597656 21.71875 7.851562 21.777344 9.375 21.777344 C 10.917969 21.777344 11.132812 21.71875 12.304688 21.074219 C 16.816406 18.59375 16.640625 12.167969 12.011719 9.980469 C 10.742188 9.375 8.652344 9.238281 7.421875 9.6875 Z M 10.605469 12.773438 C 12.636719 13.613281 13.105469 16.191406 11.523438 17.773438 C 10.234375 19.0625 8.476562 19.082031 7.207031 17.792969 C 4.785156 15.390625 7.460938 11.445312 10.605469 12.773438 Z M 10.605469 12.773438 "
       id="path10" />
    <path
       style="stroke:#fdffff;fill-rule:nonzero;fill:none;fill-opacity:1;stroke-opacity:1"
       d="M 71.972656 11.113281 C 70.175781 11.582031 68.59375 12.871094 67.773438 14.550781 C 67.089844 15.976562 67.089844 18.4375 67.773438 19.824219 C 68.378906 21.074219 69.550781 22.246094 70.800781 22.851562 C 72.1875 23.535156 74.648438 23.535156 76.074219 22.851562 C 77.324219 22.246094 78.496094 21.074219 79.101562 19.824219 C 79.785156 18.398438 79.785156 15.9375 79.101562 14.550781 C 78.476562 13.300781 77.304688 12.128906 76.074219 11.542969 C 75.019531 11.054688 73.027344 10.839844 71.972656 11.113281 Z M 74.667969 14.335938 C 76.679688 15.175781 77.167969 17.792969 75.605469 19.355469 C 73.417969 21.5625 69.824219 19.589844 70.390625 16.503906 C 70.742188 14.667969 72.890625 13.574219 74.667969 14.335938 Z M 74.667969 14.335938 "
       id="path12" />
    <path
       style="stroke:#fdffff;fill-rule:nonzero;fill:none;fill-opacity:1;stroke-opacity:1"
       d="M 38.671875 14.375 C 35.878906 15.390625 34.179688 17.96875 34.433594 20.800781 C 34.648438 23.066406 35.742188 24.726562 37.734375 25.800781 C 38.847656 26.40625 39.101562 26.464844 40.625 26.464844 C 42.167969 26.464844 42.382812 26.40625 43.554688 25.761719 C 48.066406 23.28125 47.890625 16.855469 43.261719 14.667969 C 41.992188 14.0625 39.902344 13.925781 38.671875 14.375 Z M 41.855469 17.460938 C 43.886719 18.300781 44.355469 20.878906 42.773438 22.460938 C 41.484375 23.75 39.726562 23.769531 38.457031 22.480469 C 36.035156 20.078125 38.710938 16.132812 41.855469 17.460938 Z M 41.855469 17.460938 "
       id="path14" />
    <path
       style="stroke:#fdffff;fill-rule:nonzero;fill:none;fill-opacity:1;stroke-opacity:1"
       d="M 90.625 19.003906 C 89.667969 19.316406 88.027344 20.996094 87.734375 21.992188 C 87.1875 23.828125 87.578125 25.292969 88.964844 26.660156 C 89.960938 27.675781 90.957031 28.125 92.1875 28.125 C 93.417969 28.125 94.414062 27.675781 95.410156 26.660156 C 97.324219 24.765625 97.382812 22.324219 95.566406 20.3125 C 94.296875 18.90625 92.480469 18.417969 90.625 19.003906 Z M 93.261719 22.363281 C 93.574219 22.65625 93.75 23.066406 93.75 23.4375 C 93.75 23.808594 93.574219 24.21875 93.261719 24.511719 C 92.96875 24.824219 92.558594 25 92.1875 25 C 91.816406 25 91.40625 24.824219 91.113281 24.511719 C 90.800781 24.21875 90.625 23.808594 90.625 23.4375 C 90.625 23.066406 90.800781 22.65625 91.113281 22.363281 C 91.40625 22.050781 91.816406 21.875 92.1875 21.875 C 92.558594 21.875 92.96875 22.050781 93.261719 22.363281 Z M 93.261719 22.363281 "
       id="path16" />
    <path
       style="stroke:#fdffff;fill-rule:nonzero;fill:none;fill-opacity:1;stroke-opacity:1"
       d="M 20.3125 22.128906 C 19.941406 22.246094 19.179688 22.792969 18.652344 23.339844 C 17.265625 24.707031 16.875 26.171875 17.421875 28.007812 C 17.734375 29.082031 19.355469 30.703125 20.429688 31.015625 C 22.265625 31.5625 23.730469 31.171875 25.097656 29.785156 C 27.089844 27.8125 27.089844 25.3125 25.097656 23.339844 C 23.730469 21.953125 22.128906 21.5625 20.3125 22.128906 Z M 22.949219 25.488281 C 23.925781 26.445312 23.242188 28.125 21.875 28.125 C 21.074219 28.125 20.3125 27.363281 20.3125 26.5625 C 20.3125 25.761719 21.074219 25 21.875 25 C 22.246094 25 22.65625 25.175781 22.949219 25.488281 Z M 22.949219 25.488281 "
       id="path18" />
    <path
       style="stroke:#fdffff;fill-rule:nonzero;fill:none;fill-opacity:1;stroke-opacity:1"
       d="M 50 25.253906 C 49.042969 25.566406 47.402344 27.246094 47.109375 28.242188 C 46.5625 30.078125 46.953125 31.542969 48.339844 32.910156 C 49.335938 33.925781 50.332031 34.375 51.5625 34.375 C 53.984375 34.375 56.25 32.109375 56.25 29.6875 C 56.25 28.457031 55.800781 27.460938 54.785156 26.464844 C 53.417969 25.078125 51.816406 24.6875 50 25.253906 Z M 52.636719 28.613281 C 52.949219 28.90625 53.125 29.316406 53.125 29.6875 C 53.125 30.058594 52.949219 30.46875 52.636719 30.761719 C 52.34375 31.074219 51.933594 31.25 51.5625 31.25 C 51.191406 31.25 50.78125 31.074219 50.488281 30.761719 C 50.175781 30.46875 50 30.058594 50 29.6875 C 50 29.316406 50.175781 28.90625 50.488281 28.613281 C 50.78125 28.300781 51.191406 28.125 51.5625 28.125 C 51.933594 28.125 52.34375 28.300781 52.636719 28.613281 Z M 52.636719 28.613281 "
       id="path20" />
    <path
       style="stroke:#fdffff;fill-rule:nonzero;fill:none;fill-opacity:1;stroke-opacity:1"
       d="M 75 31.503906 C 74.042969 31.816406 72.402344 33.496094 72.109375 34.492188 C 71.972656 34.941406 71.875 36.289062 71.875 37.5 C 71.875 38.710938 71.972656 40.058594 72.109375 40.507812 C 72.558594 42.03125 74.746094 43.75 76.230469 43.75 C 76.523438 43.75 76.5625 45.78125 76.601562 67.34375 L 76.660156 90.9375 L 77.382812 92.421875 C 78.261719 94.199219 79.394531 95.292969 81.210938 96.152344 C 82.402344 96.71875 82.695312 96.777344 84.375 96.777344 C 86.054688 96.777344 86.347656 96.71875 87.539062 96.152344 C 89.355469 95.292969 90.488281 94.199219 91.367188 92.421875 L 92.089844 90.9375 L 92.148438 67.34375 C 92.1875 45.78125 92.226562 43.75 92.519531 43.75 C 94.003906 43.75 96.191406 42.03125 96.640625 40.507812 C 96.953125 39.472656 96.953125 35.527344 96.640625 34.492188 C 96.328125 33.417969 94.707031 31.796875 93.632812 31.484375 C 92.558594 31.171875 76.015625 31.191406 75 31.503906 Z M 93.261719 34.863281 C 93.730469 35.3125 93.75 35.46875 93.75 37.5 C 93.75 39.53125 93.730469 39.6875 93.261719 40.136719 L 92.792969 40.625 L 75.957031 40.625 L 75.488281 40.136719 C 75.019531 39.6875 75 39.53125 75 37.5 C 75 35.46875 75.019531 35.3125 75.488281 34.863281 L 75.957031 34.375 L 92.792969 34.375 Z M 89.0625 66.71875 C 89.0625 84.199219 89.003906 89.902344 88.828125 90.507812 C 88.320312 92.1875 86.171875 93.75 84.375 93.75 C 82.578125 93.75 80.429688 92.1875 79.921875 90.507812 C 79.746094 89.902344 79.6875 84.199219 79.6875 66.71875 L 79.6875 43.75 L 89.0625 43.75 Z M 89.0625 66.71875 "
       id="path22" />
    <path
       style="stroke:#fdffff;fill-rule:nonzero;fill:none;fill-opacity:1;stroke-opacity:1"
       d="M 17.675781 37.988281 C 17.1875 38.457031 17.1875 38.457031 17.1875 42.675781 L 17.1875 46.875 L 20.3125 46.875 L 20.3125 40.625 L 46.875 40.625 L 46.875 54.6875 L 50 54.6875 L 50 38.457031 L 49.511719 37.988281 L 49.042969 37.5 L 18.144531 37.5 Z M 17.675781 37.988281 "
       id="path24" />
    <path
       style="stroke:#fdffff;fill-rule:nonzero;fill:none;fill-opacity:1;stroke-opacity:1"
       d="M 10.9375 50.253906 C 9.980469 50.566406 8.339844 52.246094 8.046875 53.242188 C 7.5 55.078125 7.890625 56.542969 9.277344 57.910156 C 10.195312 58.828125 11.269531 59.375 12.1875 59.375 C 12.460938 59.375 12.5 59.902344 12.5 64.667969 L 12.5 69.980469 L 7.890625 80.507812 C 3.515625 90.527344 3.28125 91.09375 3.300781 92.226562 C 3.300781 94.316406 4.6875 96.152344 6.640625 96.679688 C 7.148438 96.816406 11.367188 96.875 19.199219 96.835938 L 30.996094 96.777344 L 31.933594 96.191406 C 32.460938 95.859375 33.164062 95.214844 33.496094 94.765625 C 33.984375 94.042969 34.082031 93.691406 34.140625 92.480469 L 34.21875 91.054688 L 29.609375 80.507812 L 25 69.980469 L 25 64.667969 C 25 59.6875 25.019531 59.375 25.351562 59.375 C 26.289062 59.375 27.558594 58.710938 28.378906 57.8125 C 30.136719 55.859375 30.136719 53.515625 28.378906 51.5625 C 26.992188 50.019531 26.835938 50 18.671875 50.019531 C 14.121094 50.039062 11.386719 50.117188 10.9375 50.253906 Z M 26.074219 53.613281 C 26.386719 53.90625 26.5625 54.316406 26.5625 54.6875 C 26.5625 55.058594 26.386719 55.46875 26.074219 55.761719 L 25.605469 56.25 L 11.894531 56.25 L 11.425781 55.761719 C 11.113281 55.46875 10.9375 55.058594 10.9375 54.6875 C 10.9375 54.316406 11.113281 53.90625 11.425781 53.613281 L 11.894531 53.125 L 25.605469 53.125 Z M 21.875 65.019531 L 21.875 70.644531 L 26.484375 81.171875 C 29.003906 86.953125 31.09375 91.953125 31.09375 92.265625 C 31.113281 92.65625 30.957031 92.988281 30.585938 93.300781 L 30.058594 93.75 L 7.441406 93.75 L 6.914062 93.300781 C 6.542969 92.988281 6.386719 92.65625 6.40625 92.265625 C 6.40625 91.953125 8.496094 86.953125 11.015625 81.171875 L 15.625 70.644531 L 15.625 59.375 L 21.875 59.375 Z M 21.875 65.019531 "
       id="path26" />
    <path
       style="stroke:#fdffff;fill-rule:nonzero;fill:none;fill-opacity:1;stroke-opacity:1"
       d="M 42.675781 58.300781 C 42.1875 58.769531 42.1875 58.828125 42.1875 62.207031 L 42.1875 65.625 L 45.3125 65.625 L 45.3125 60.9375 L 62.5 60.9375 L 62.5 65.625 L 65.625 65.625 L 65.625 62.207031 C 65.625 58.828125 65.625 58.769531 65.136719 58.300781 L 64.667969 57.8125 L 43.144531 57.8125 Z M 42.675781 58.300781 "
       id="path28" />
    <path
       style="stroke:#fdffff;fill-rule:nonzero;fill:none;fill-opacity:1;stroke-opacity:1"
       d="M 35.9375 70.3125 L 35.9375 71.875 L 39.0625 71.875 L 39.0625 79.863281 L 38.203125 80.253906 C 35.976562 81.230469 34.375 84.179688 34.375 87.285156 C 34.375 93.476562 40.15625 98.085938 45.996094 96.582031 C 48.515625 95.917969 50.9375 94.003906 52.050781 91.777344 C 54.179688 87.597656 52.929688 82.03125 49.511719 80.351562 L 48.4375 79.84375 L 48.4375 71.875 L 51.5625 71.875 L 51.5625 68.75 L 35.9375 68.75 Z M 45.3125 76.855469 L 45.3125 81.855469 L 45.800781 82.324219 C 46.113281 82.65625 46.484375 82.8125 46.933594 82.8125 C 47.871094 82.8125 48.808594 83.515625 49.394531 84.667969 C 49.824219 85.488281 49.902344 85.898438 49.902344 87.304688 C 49.902344 88.691406 49.824219 89.140625 49.394531 90.058594 C 48.769531 91.386719 47.773438 92.402344 46.425781 93.105469 C 45.546875 93.554688 45.175781 93.632812 43.75 93.632812 C 42.324219 93.632812 41.953125 93.554688 41.074219 93.105469 C 39.726562 92.402344 38.730469 91.386719 38.105469 90.058594 C 37.675781 89.140625 37.597656 88.691406 37.597656 87.304688 C 37.597656 85.898438 37.675781 85.488281 38.105469 84.667969 C 38.691406 83.515625 39.628906 82.8125 40.566406 82.8125 C 41.015625 82.8125 41.386719 82.65625 41.699219 82.324219 L 42.1875 81.855469 L 42.1875 71.875 L 45.3125 71.875 Z M 45.3125 76.855469 "
       id="path30" />
    <path
       style="stroke:#fdffff;fill-rule:nonzero;fill:none;fill-opacity:1;stroke-opacity:1"
       d="M 56.25 70.3125 L 56.25 71.875 L 59.375 71.875 L 59.375 79.863281 L 58.515625 80.253906 C 56.289062 81.230469 54.6875 84.179688 54.6875 87.285156 C 54.6875 93.476562 60.46875 98.085938 66.308594 96.582031 C 68.828125 95.917969 71.25 94.003906 72.363281 91.777344 C 74.492188 87.597656 73.242188 82.03125 69.824219 80.351562 L 68.75 79.84375 L 68.75 71.875 L 71.875 71.875 L 71.875 68.75 L 56.25 68.75 Z M 65.625 76.855469 L 65.625 81.855469 L 66.113281 82.324219 C 66.425781 82.65625 66.796875 82.8125 67.246094 82.8125 C 68.183594 82.8125 69.121094 83.515625 69.707031 84.667969 C 70.136719 85.488281 70.214844 85.898438 70.214844 87.304688 C 70.214844 88.691406 70.136719 89.140625 69.707031 90.058594 C 69.082031 91.386719 68.085938 92.402344 66.738281 93.105469 C 65.859375 93.554688 65.488281 93.632812 64.0625 93.632812 C 62.636719 93.632812 62.265625 93.554688 61.386719 93.105469 C 60.039062 92.402344 59.042969 91.386719 58.417969 90.058594 C 57.988281 89.140625 57.910156 88.691406 57.910156 87.304688 C 57.910156 85.898438 57.988281 85.488281 58.417969 84.667969 C 59.003906 83.515625 59.941406 82.8125 60.878906 82.8125 C 61.328125 82.8125 61.699219 82.65625 62.011719 82.324219 L 62.5 81.855469 L 62.5 71.875 L 65.625 71.875 Z M 65.625 76.855469 "
       id="path32" />
  </g>
</svg>
