<svg width="700" height="700" xmlns="http://www.w3.org/2000/svg" xmlns:xlink="http://www.w3.org/1999/xlink" version="1.1">

 <g>
  <title>Layer 1</title>
  <g id="svg_19">
   <path id="svg_20" d="m358.75,490l-236.25,0l0,-183.75l35,0l0,131.25c0,9.3789 5.0039,18.043 13.125,22.734c8.1211,4.6875 18.129,4.6875 26.25,0c8.1211,-4.6914 13.125,-13.355 13.125,-22.734l0,-131.25l52.5,0l0,47.094l-3.2578,1.6289c-15.539,7.7695 -26.723,22.16 -30.418,39.137c-3.6992,16.973 0.48828,34.711 11.387,48.242c10.898,13.527 27.336,21.395 44.711,21.398l7.6562,0c17.375,-0.00391 33.812,-7.8711 44.711,-21.398c10.898,-13.531 15.086,-31.27 11.387,-48.242c-3.6953,-16.977 -14.879,-31.367 -30.418,-39.137l-3.2578,-1.6289l0,-47.094l43.75,0l0,-17.5l-43.75,0l0,-17.5l17.5,0l0,-17.5l-14.109,0l4.9102,-14.734l-16.602,-5.5352l-6.7539,20.27l-22.391,0l-6.7578,-20.266l-16.602,5.5352l4.9141,14.73l-14.109,0l0,17.5l17.5,0l0,17.5l-52.5,0l0,-17.5l17.5,0l0,-17.5l-14.109,0l4.9102,-14.734l-16.602,-5.5352l-6.7539,20.27l-22.391,0l-6.7578,-20.266l-16.602,5.5352l4.9141,14.73l-14.109,0l0,17.5l17.5,0l0,17.5l-35,0l0,-17.5l-17.5,0l0,17.5l-17.5,0l0,17.5l17.5,0l0,185.25c-7.8438,2.7773 -13.906,9.1094 -16.34,17.066c-2.4336,7.957 -0.95312,16.598 3.9961,23.289c4.9453,6.6875 12.773,10.637 21.094,10.641l245,0c9.3789,0 18.043,-5.0039 22.734,-13.125c4.6875,-8.1211 4.6875,-18.129 0,-26.25c-4.6914,-8.1211 -13.355,-13.125 -22.734,-13.125l0.0001,0.004zm-26.25,-83.672c-0.01172,10.586 -4.2227,20.73 -11.707,28.215s-17.629,11.695 -28.215,11.707l-7.6562,0c-12.078,0 -23.508,-5.4727 -31.082,-14.879c-7.5781,-9.4062 -10.488,-21.738 -7.918,-33.539s10.344,-21.805 21.148,-27.207l8.0938,-4.0469c2.9648,-1.4844 4.8359,-4.5117 4.8359,-7.8281l0,-8.75l17.5,0l0,8.75c0,3.3125 1.8711,6.3438 4.8359,7.8242l8.0938,4.0469c6.6484,3.2969 12.238,8.3867 16.141,14.699c3.8984,6.3125 5.9531,13.59 5.9297,21.008l0.0001,-0.0001zm-35,-73.828l-17.5,0l0,-26.25l17.5,0l0,26.25zm-17.5,-61.25l17.5,0l0,17.5l-17.5,0l0,-17.5zm-96.25,175c-4.832,-0.00391 -8.7461,-3.918 -8.75,-8.75l0,-87.5l17.5,0l0,87.5c-0.00391,4.832 -3.918,8.7461 -8.75,8.75zm8.75,-113.75l-17.5,0l0,-26.25l17.5,0l0,26.25zm-17.5,-61.25l17.5,0l0,17.5l-17.5,0l0,-17.5zm183.75,253.75l-245,0c-4.832,0 -8.75,-3.918 -8.75,-8.75s3.918,-8.75 8.75,-8.75l245,0c4.832,0 8.75,3.918 8.75,8.75s-3.918,8.75 -8.75,8.75z"/>
   <path id="svg_21" d="m612.5,428.75l0,-227.5c-0.01172,-9.2812 -3.7031,-18.176 -10.262,-24.738c-6.5625,-6.5586 -15.457,-10.25 -24.738,-10.262l-43.75,0l0,0.03125c-7.3867,-9.8672 -18.594,-16.16 -30.863,-17.332c-12.273,-1.1719 -24.469,2.8867 -33.59,11.18c-9.1211,8.2891 -14.32,20.043 -14.32,32.371s5.1992,24.082 14.32,32.371c9.1211,8.293 21.316,12.352 33.59,11.18c12.27,-1.1719 23.477,-7.4648 30.863,-17.332l0,0.03125l17.5,0l0,192.5l-35,0l0,-17.5l17.5,0l0,-17.5l-140,0l0,17.5l17.5,0l0,17.5l-26.25,0c-4.832,0 -8.75,3.918 -8.75,8.75l0,35c0,2.3203 0.92188,4.5469 2.5625,6.1875s3.8672,2.5625 6.1875,2.5625l140,0l0,26.25l-122.5,0l0,17.5l183.75,0c4.832,0 8.75,3.918 8.75,8.75s-3.918,8.75 -8.75,8.75l-183.75,0l0,17.5l183.75,0c9.3789,0 18.043,-5.0039 22.734,-13.125c4.6875,-8.1211 4.6875,-18.129 0,-26.25c-4.6914,-8.1211 -13.355,-13.125 -22.734,-13.125l0,-27.359c7.5078,-1.9492 14.156,-6.332 18.906,-12.465c4.75,-6.1328 7.332,-13.668 7.3438,-21.426l0.0002,-0.0005zm-113.75,-210c-6.9609,0 -13.641,-2.7656 -18.562,-7.6875s-7.6875,-11.602 -7.6875,-18.562s2.7656,-13.641 7.6875,-18.562s11.602,-7.6875 18.562,-7.6875s13.641,2.7656 18.562,7.6875s7.6875,11.602 7.6875,18.562c-0.00781,6.9609 -2.7773,13.633 -7.6992,18.551c-4.918,4.9219 -11.59,7.6914 -18.551,7.6992l0.0007,-0.0007zm-70,175l70,0l0,17.5l-70,0l0,-17.5zm-35,35l166.25,0c2.3203,0 4.5469,-0.92188 6.1875,-2.5625s2.5625,-3.8672 2.5625,-6.1875l0,-210c0,-2.3203 -0.92188,-4.5469 -2.5625,-6.1875s-3.8672,-2.5625 -6.1875,-2.5625l-18.375,0c1.1758,-5.7734 1.1758,-11.727 0,-17.5l35.875,0c4.6406,0.00391 9.0859,1.8516 12.367,5.1328s5.1289,7.7266 5.1328,12.367l0,227.5c-0.00391,4.6406 -1.8516,9.0859 -5.1328,12.367s-7.7266,5.1289 -12.367,5.1328l-183.75,0l0,-17.4996zm148.75,61.25l0,-26.25l26.25,0l0,26.25l-26.25,0z"/>
   <path id="svg_22" d="m490,183.75l17.5,0l0,17.5l-17.5,0l0,-17.5z"/>
   <path id="svg_23" d="m276.11,134.89l47.629,22.094l-3.6836,7.9414c-0.97656,2.1055 -1.0742,4.5117 -0.27734,6.6914c0.79688,2.1797 2.4297,3.9492 4.5352,4.9258l86.938,40.312l0,28.145l-17.5,0l0,17.5l17.5,0l0,26.25c0,2.3203 0.92188,4.5469 2.5625,6.1875s3.8672,2.5625 6.1875,2.5625l8.75,0l0,17.5c0,2.3203 0.92188,4.5469 2.5625,6.1875l17.5,17.5c1.6406,1.6406 3.8672,2.5625 6.1875,2.5625l17.5,0c2.3203,0 4.5469,-0.92188 6.1875,-2.5625l17.5,-17.5c1.6406,-1.6406 2.5625,-3.8672 2.5625,-6.1875l0,-17.5l8.75,0c2.3203,0 4.5469,-0.92188 6.1875,-2.5625s2.5625,-3.8672 2.5625,-6.1875l0,-35l-17.5,0l0,26.25l-70,0l0,-192.5l70,0l0,43.75l17.5,0l0,-52.5c0,-2.3203 -0.92188,-4.5469 -2.5625,-6.1875s-3.8672,-2.5625 -6.1875,-2.5625l-87.5,0c-4.832,0 -8.75,3.918 -8.75,8.75l0,41.652l-50.121,-23.242c-4.3828,-2.0312 -9.5859,-0.12891 -11.617,4.2578l-3.6797,7.9336l-47.637,-22.094c-2.1055,-0.97656 -4.5117,-1.0781 -6.6914,-0.27734c-2.1797,0.79688 -3.9531,2.4297 -4.9297,4.5352l-14.723,31.75l0.00391,0c-0.98047,2.1055 -1.082,4.5156 -0.28125,6.6953c0.79688,2.1797 2.4297,3.9531 4.5352,4.9297l-0.00032,0.00014zm205.14,176.48l-12.375,12.375l-10.254,0l-12.371,-12.375l0,-13.875l35,0l0,13.875zm-119.55,-194.66l49.547,22.973l0,57.875l-71.641,-33.219l22.094,-47.629zm-62.934,-9.8984l39.695,18.406l-7.3633,15.879l-39.691,-18.406l7.3593,-15.879z"/>
   <path id="svg_24" d="m455,105l17.5,0l0,17.5l-17.5,0l0,-17.5z"/>
   <path id="svg_25" d="m131.25,148.75l96.25,0c4.832,0 8.75,3.918 8.75,8.75s-3.918,8.75 -8.75,8.75l-26.25,0c-6.9609,0.00781 -13.633,2.7773 -18.555,7.6953c-4.918,4.9219 -7.6875,11.594 -7.6953,18.555l0,26.25l17.5,0l0,-26.25c0.00391,-4.832 3.918,-8.7461 8.75,-8.75l26.25,0c9.3789,0 18.043,-5.0039 22.734,-13.125c4.6875,-8.1211 4.6875,-18.129 0,-26.25c-4.6914,-8.1211 -13.355,-13.125 -22.734,-13.125l-96.25,0c-4.832,0 -8.75,-3.918 -8.75,-8.75s3.918,-8.75 8.75,-8.75l43.75,0c6.9609,-0.00781 13.633,-2.7773 18.555,-7.6953c4.918,-4.9219 7.6875,-11.594 7.6953,-18.555l0,-26.25l-17.5,0l0,26.25c-0.00391,4.832 -3.918,8.7461 -8.75,8.75l-43.75,0c-9.3789,0 -18.043,5.0039 -22.734,13.125c-4.6875,8.1211 -4.6875,18.129 0,26.25c4.6914,8.1211 13.355,13.125 22.734,13.125z"/>
   <path id="svg_26" d="m183.75,26.25l17.5,0l0,17.5l-17.5,0l0,-17.5z"/>
   <use id="svg_27" xlink:href="#r" y="576.40625" x="70"/>
   <use id="svg_28" xlink:href="#b" y="576.40625" x="74.01172"/>
   <use id="svg_29" xlink:href="#a" y="576.40625" x="76.71094"/>
   <use id="svg_30" xlink:href="#j" y="576.40625" x="80.41797"/>
   <use id="svg_31" xlink:href="#d" y="576.40625" x="84.10938"/>
   <use id="svg_32" xlink:href="#a" y="576.40625" x="86.72266"/>
   <use id="svg_33" xlink:href="#i" y="576.40625" x="90.43359"/>
   <use id="svg_34" xlink:href="#h" y="576.40625" x="96.25"/>
   <use id="svg_35" xlink:href="#g" y="576.40625" x="100.16797"/>
   <use id="svg_36" xlink:href="#e" y="576.40625" x="105.63672"/>
   <use id="svg_37" xlink:href="#f" y="576.40625" x="110.21094"/>
   <use id="svg_38" xlink:href="#c" y="576.40625" x="114.10547"/>
   <use id="svg_39" xlink:href="#b" y="576.40625" x="117.86328"/>
   <use id="svg_40" xlink:href="#q" y="581.875" x="70"/>
   <use id="svg_41" xlink:href="#b" y="581.875" x="72.37891"/>
   <use id="svg_42" xlink:href="#c" y="581.875" x="75.07813"/>
   <use id="svg_43" xlink:href="#p" y="581.875" x="78.83203"/>
   <use id="svg_44" xlink:href="#d" y="581.875" x="86.4375"/>
   <use id="svg_45" xlink:href="#f" y="581.875" x="89.05078"/>
   <use id="svg_46" xlink:href="#a" y="581.875" x="92.94141"/>
   <use id="svg_47" xlink:href="#e" y="581.875" x="98.55469"/>
   <use id="svg_48" xlink:href="#c" y="581.875" x="103.13281"/>
   <use id="svg_49" xlink:href="#o" y="581.875" x="106.89063"/>
   <use id="svg_50" xlink:href="#n" y="581.875" x="110.78516"/>
   <use id="svg_51" xlink:href="#m" y="581.875" x="116.58203"/>
   <use id="svg_52" xlink:href="#b" y="581.875" x="120.58984"/>
   <use id="svg_54" xlink:href="#l" y="581.875" x="127.04297"/>
   <use id="svg_55" xlink:href="#a" y="581.875" x="128.91797"/>
   <use id="svg_56" xlink:href="#k" y="581.875" x="132.625"/>
   <use id="svg_57" xlink:href="#d" y="581.875" x="135.86719"/>
  </g>
 </g>
</svg>