<?xml version="1.0" encoding="UTF-8"?>
<svg xmlns="http://www.w3.org/2000/svg" xmlns:xlink="http://www.w3.org/1999/xlink" width="100px" height="px" viewBox="0 0 100 100" version="1.1">
<g id="surface1">
<path style=" stroke:none;fill-rule:nonzero;fill:rgb(96.078431%,96.078431%,96.078431%);fill-opacity:1;" d="M 4.6875 1.816406 C 3.730469 2.128906 2.089844 3.808594 1.796875 4.804688 C 1.464844 5.957031 1.464844 28.417969 1.796875 29.570312 C 2.109375 30.644531 3.730469 32.265625 4.804688 32.578125 C 5.9375 32.910156 19.0625 32.910156 20.195312 32.578125 C 21.269531 32.265625 22.890625 30.644531 23.203125 29.570312 C 23.535156 28.4375 23.535156 5.957031 23.203125 4.84375 C 23.085938 4.414062 22.597656 3.632812 22.128906 3.125 C 20.742188 1.582031 20.585938 1.5625 12.421875 1.582031 C 7.871094 1.601562 5.136719 1.679688 4.6875 1.816406 Z M 19.824219 5.175781 C 20.234375 5.566406 20.3125 5.839844 20.3125 6.738281 L 20.3125 7.8125 L 4.6875 7.8125 L 4.6875 6.738281 C 4.6875 5.839844 4.765625 5.566406 5.175781 5.175781 L 5.644531 4.6875 L 19.355469 4.6875 Z M 20.3125 17.1875 L 20.3125 23.4375 L 4.6875 23.4375 L 4.6875 10.9375 L 20.3125 10.9375 Z M 20.3125 27.636719 C 20.3125 28.535156 20.234375 28.808594 19.824219 29.199219 L 19.355469 29.6875 L 5.644531 29.6875 L 5.175781 29.199219 C 4.765625 28.808594 4.6875 28.535156 4.6875 27.636719 L 4.6875 26.5625 L 20.3125 26.5625 Z M 20.3125 27.636719 "/>
<path style=" stroke:none;fill-rule:nonzero;fill:rgb(96.078431%,96.078431%,96.078431%);fill-opacity:1;" d="M 70.3125 1.816406 C 69.355469 2.128906 67.714844 3.808594 67.421875 4.804688 C 67.246094 5.390625 67.1875 8.007812 67.1875 14.0625 C 67.1875 20.117188 67.246094 22.734375 67.421875 23.320312 C 67.734375 24.394531 69.355469 26.015625 70.429688 26.328125 C 70.898438 26.464844 72.382812 26.5625 73.90625 26.5625 L 76.5625 26.5625 L 76.5625 29.6875 L 73.4375 29.6875 L 73.4375 32.8125 L 92.1875 32.8125 L 92.1875 29.6875 L 89.0625 29.6875 L 89.0625 26.5625 L 91.71875 26.5625 C 93.242188 26.5625 94.726562 26.464844 95.195312 26.328125 C 96.269531 26.015625 97.890625 24.394531 98.203125 23.320312 C 98.535156 22.1875 98.535156 5.9375 98.203125 4.84375 C 98.085938 4.414062 97.597656 3.632812 97.128906 3.125 C 95.683594 1.503906 96.152344 1.5625 82.734375 1.582031 C 74.765625 1.601562 70.78125 1.679688 70.3125 1.816406 Z M 94.824219 5.175781 L 95.3125 5.644531 L 95.3125 17.1875 L 70.3125 17.1875 L 70.3125 5.644531 L 70.800781 5.175781 L 71.269531 4.6875 L 94.355469 4.6875 Z M 95.3125 21.386719 C 95.3125 22.285156 95.234375 22.558594 94.824219 22.949219 L 94.355469 23.4375 L 71.269531 23.4375 L 70.800781 22.949219 C 70.390625 22.558594 70.3125 22.285156 70.3125 21.386719 L 70.3125 20.3125 L 95.3125 20.3125 Z M 85.9375 28.125 L 85.9375 29.6875 L 79.6875 29.6875 L 79.6875 26.5625 L 85.9375 26.5625 Z M 85.9375 28.125 "/>
<path style=" stroke:none;fill-rule:nonzero;fill:rgb(96.078431%,96.078431%,96.078431%);fill-opacity:1;" d="M 47.851562 7.929688 C 44.082031 8.59375 40.976562 10.019531 38.574219 12.167969 L 37.792969 12.871094 L 38.90625 13.984375 L 40 15.097656 L 40.878906 14.335938 C 42.148438 13.222656 44.023438 12.167969 45.800781 11.582031 C 47.128906 11.152344 47.714844 11.074219 49.804688 11.054688 C 51.542969 11.035156 52.617188 11.132812 53.515625 11.386719 C 55.253906 11.835938 57.734375 13.105469 58.925781 14.160156 L 59.921875 15.039062 L 61.054688 13.925781 L 62.167969 12.8125 L 61.40625 12.148438 C 58.28125 9.414062 54.785156 8.046875 50.585938 7.910156 C 49.355469 7.871094 48.125 7.871094 47.851562 7.929688 Z M 47.851562 7.929688 "/>
<path style=" stroke:none;fill-rule:nonzero;fill:rgb(96.078431%,96.078431%,96.078431%);fill-opacity:1;" d="M 47.753906 14.296875 C 45.976562 14.628906 42.382812 16.660156 42.382812 17.34375 C 42.382812 17.539062 44.199219 19.335938 44.414062 19.335938 C 44.492188 19.335938 44.84375 19.121094 45.195312 18.847656 C 45.527344 18.59375 46.347656 18.125 46.972656 17.832031 C 47.988281 17.363281 48.378906 17.285156 50 17.285156 C 51.621094 17.285156 52.011719 17.363281 53.027344 17.832031 C 53.652344 18.125 54.472656 18.59375 54.804688 18.847656 C 55.15625 19.121094 55.527344 19.335938 55.605469 19.335938 C 55.839844 19.335938 57.617188 17.519531 57.617188 17.265625 C 57.617188 16.992188 55.9375 15.761719 54.707031 15.136719 C 52.792969 14.179688 50.097656 13.847656 47.753906 14.296875 Z M 47.753906 14.296875 "/>
<path style=" stroke:none;fill-rule:nonzero;fill:rgb(96.078431%,96.078431%,96.078431%);fill-opacity:1;" d="M 48.828125 20.488281 C 48.085938 20.722656 47.167969 21.230469 46.914062 21.542969 C 46.738281 21.757812 46.894531 22.011719 47.734375 22.8125 C 48.730469 23.789062 48.789062 23.808594 49.394531 23.574219 C 49.84375 23.417969 50.15625 23.398438 50.566406 23.574219 C 51.09375 23.769531 51.191406 23.730469 52.148438 22.753906 C 52.734375 22.167969 53.105469 21.621094 53.046875 21.503906 C 52.578125 20.761719 49.921875 20.136719 48.828125 20.488281 Z M 48.828125 20.488281 "/>
<path style=" stroke:none;fill-rule:nonzero;fill:rgb(96.078431%,96.078431%,96.078431%);fill-opacity:1;" d="M 46.660156 26.855469 C 44.667969 27.226562 42.363281 28.066406 40.507812 29.121094 C 38.300781 30.351562 35 33.691406 33.75 35.917969 C 32.949219 37.34375 31.875 40.253906 31.5625 41.816406 C 31.464844 42.265625 31.328125 42.34375 30.527344 42.460938 C 29.023438 42.65625 26.5625 43.984375 25.234375 45.292969 C 19.257812 51.171875 21.621094 60.859375 29.6875 63.59375 C 30.703125 63.945312 31.738281 63.964844 51.5625 63.964844 C 71.386719 63.964844 72.421875 63.945312 73.4375 63.59375 C 77.890625 62.089844 80.800781 58.457031 81.191406 53.984375 C 81.40625 51.386719 80.449219 48.222656 78.90625 46.386719 C 78.300781 45.664062 78.320312 45.683594 79.21875 46.523438 C 79.746094 47.050781 80.253906 47.460938 80.351562 47.460938 C 80.429688 47.460938 80.78125 47.246094 81.132812 46.972656 C 81.464844 46.71875 82.285156 46.25 82.910156 45.957031 C 83.925781 45.488281 84.316406 45.410156 85.9375 45.410156 C 87.558594 45.410156 87.949219 45.488281 88.964844 45.957031 C 89.589844 46.25 90.410156 46.71875 90.742188 46.972656 C 91.09375 47.246094 91.464844 47.460938 91.542969 47.460938 C 91.777344 47.460938 93.554688 45.644531 93.554688 45.390625 C 93.554688 45.292969 93.125 44.882812 92.617188 44.472656 C 89.296875 41.933594 84.921875 41.503906 81.171875 43.339844 C 80.292969 43.769531 79.277344 44.414062 78.90625 44.785156 L 78.222656 45.449219 L 77.148438 44.609375 C 75.058594 42.96875 72.324219 42.089844 69.746094 42.226562 L 68.496094 42.285156 L 68.125 40.742188 C 67.929688 39.882812 67.382812 38.359375 66.894531 37.34375 C 63.242188 29.648438 54.960938 25.371094 46.660156 26.855469 Z M 52.773438 29.960938 C 60 31.367188 65.097656 37.167969 65.566406 44.570312 C 65.625 45.625 65.703125 46.484375 65.722656 46.484375 C 65.761719 46.484375 66.386719 46.25 67.109375 45.957031 C 68.222656 45.527344 68.769531 45.429688 70.3125 45.429688 C 72.011719 45.410156 72.285156 45.46875 73.476562 46.035156 C 75.292969 46.894531 76.425781 47.988281 77.304688 49.765625 C 77.988281 51.171875 78.027344 51.347656 78.027344 53.105469 C 78.027344 54.804688 77.96875 55.097656 77.402344 56.289062 C 76.542969 58.105469 75.449219 59.238281 73.671875 60.117188 L 72.1875 60.839844 L 30.9375 60.839844 L 29.453125 60.117188 C 27.675781 59.238281 26.582031 58.105469 25.722656 56.289062 C 25.15625 55.097656 25.097656 54.804688 25.097656 53.125 C 25.097656 51.445312 25.15625 51.152344 25.722656 49.960938 C 26.5625 48.164062 27.695312 47.011719 29.414062 46.171875 C 30.625 45.566406 31.09375 45.449219 32.578125 45.351562 L 34.335938 45.253906 L 34.453125 43.964844 C 34.765625 40.820312 36.074219 37.597656 37.929688 35.351562 C 41.542969 31.015625 47.324219 28.90625 52.773438 29.960938 Z M 52.773438 29.960938 "/>
<path style=" stroke:none;fill-rule:nonzero;fill:rgb(96.078431%,96.078431%,96.078431%);fill-opacity:1;" d="M 47.285156 33.105469 C 43.828125 33.867188 40.507812 36.445312 38.90625 39.648438 C 38.105469 41.25 37.519531 43.378906 37.5 44.667969 L 37.5 45.3125 L 40.546875 45.3125 L 40.761719 43.925781 C 41.386719 39.921875 44.628906 36.699219 48.652344 36.054688 L 50 35.859375 L 50 32.8125 L 49.277344 32.832031 C 48.867188 32.832031 47.96875 32.96875 47.285156 33.105469 Z M 47.285156 33.105469 "/>
<path style=" stroke:none;fill-rule:nonzero;fill:rgb(96.078431%,96.078431%,96.078431%);fill-opacity:1;" d="M 35.9375 48.691406 C 34.980469 49.003906 33.339844 50.683594 33.046875 51.679688 C 32.5 53.515625 32.890625 54.980469 34.277344 56.347656 C 36.25 58.339844 38.75 58.339844 40.722656 56.347656 C 42.636719 54.453125 42.695312 52.011719 40.878906 50 C 39.609375 48.59375 37.792969 48.105469 35.9375 48.691406 Z M 38.574219 52.050781 C 39.550781 53.007812 38.867188 54.6875 37.5 54.6875 C 37.128906 54.6875 36.71875 54.511719 36.425781 54.199219 C 36.113281 53.90625 35.9375 53.496094 35.9375 53.125 C 35.9375 52.753906 36.113281 52.34375 36.425781 52.050781 C 36.71875 51.738281 37.128906 51.5625 37.5 51.5625 C 37.871094 51.5625 38.28125 51.738281 38.574219 52.050781 Z M 38.574219 52.050781 "/>
<path style=" stroke:none;fill-rule:nonzero;fill:rgb(96.078431%,96.078431%,96.078431%);fill-opacity:1;" d="M 48.4375 48.691406 C 47.480469 49.003906 45.839844 50.683594 45.546875 51.679688 C 45 53.515625 45.390625 54.980469 46.777344 56.347656 C 48.75 58.339844 51.25 58.339844 53.222656 56.347656 C 55.136719 54.453125 55.195312 52.011719 53.378906 50 C 52.109375 48.59375 50.292969 48.105469 48.4375 48.691406 Z M 51.074219 52.050781 C 52.050781 53.007812 51.367188 54.6875 50 54.6875 C 49.628906 54.6875 49.21875 54.511719 48.925781 54.199219 C 48.613281 53.90625 48.4375 53.496094 48.4375 53.125 C 48.4375 52.753906 48.613281 52.34375 48.925781 52.050781 C 49.21875 51.738281 49.628906 51.5625 50 51.5625 C 50.371094 51.5625 50.78125 51.738281 51.074219 52.050781 Z M 51.074219 52.050781 "/>
<path style=" stroke:none;fill-rule:nonzero;fill:rgb(96.078431%,96.078431%,96.078431%);fill-opacity:1;" d="M 60.9375 48.691406 C 59.980469 49.003906 58.339844 50.683594 58.046875 51.679688 C 57.5 53.515625 57.890625 54.980469 59.277344 56.347656 C 61.25 58.339844 63.75 58.339844 65.722656 56.347656 C 67.636719 54.453125 67.695312 52.011719 65.878906 50 C 64.609375 48.59375 62.792969 48.105469 60.9375 48.691406 Z M 63.574219 52.050781 C 64.550781 53.007812 63.867188 54.6875 62.5 54.6875 C 61.699219 54.6875 60.9375 53.925781 60.9375 53.125 C 60.9375 52.324219 61.699219 51.5625 62.5 51.5625 C 62.871094 51.5625 63.28125 51.738281 63.574219 52.050781 Z M 63.574219 52.050781 "/>
<path style=" stroke:none;fill-rule:nonzero;fill:rgb(96.078431%,96.078431%,96.078431%);fill-opacity:1;" d="M 11.914062 36.054688 C 8.164062 36.71875 5.097656 38.125 2.65625 40.273438 L 1.894531 40.9375 L 3.027344 42.070312 L 4.160156 43.183594 L 4.765625 42.597656 C 7.890625 39.648438 13.183594 38.378906 17.675781 39.550781 C 19.335938 39.960938 21.796875 41.25 23.027344 42.324219 L 24.0625 43.222656 L 25.15625 42.109375 L 26.269531 40.996094 L 25.488281 40.292969 C 22.402344 37.558594 18.847656 36.171875 14.648438 36.035156 C 13.417969 35.996094 12.1875 35.996094 11.914062 36.054688 Z M 11.914062 36.054688 "/>
<path style=" stroke:none;fill-rule:nonzero;fill:rgb(96.078431%,96.078431%,96.078431%);fill-opacity:1;" d="M 83.789062 36.054688 C 80.019531 36.71875 76.914062 38.144531 74.511719 40.292969 L 73.730469 40.996094 L 74.84375 42.109375 L 75.9375 43.222656 L 76.816406 42.460938 C 78.085938 41.347656 79.960938 40.292969 81.738281 39.707031 C 83.066406 39.277344 83.652344 39.199219 85.742188 39.179688 C 87.480469 39.160156 88.554688 39.257812 89.453125 39.511719 C 91.191406 39.960938 93.671875 41.230469 94.863281 42.285156 L 95.859375 43.164062 L 96.992188 42.050781 L 98.105469 40.9375 L 97.34375 40.273438 C 94.21875 37.539062 90.722656 36.171875 86.523438 36.035156 C 85.292969 35.996094 84.0625 35.996094 83.789062 36.054688 Z M 83.789062 36.054688 "/>
<path style=" stroke:none;fill-rule:nonzero;fill:rgb(96.078431%,96.078431%,96.078431%);fill-opacity:1;" d="M 11.816406 42.421875 C 10.039062 42.753906 6.445312 44.785156 6.445312 45.46875 C 6.445312 45.664062 8.261719 47.460938 8.476562 47.460938 C 8.554688 47.460938 8.90625 47.246094 9.257812 46.972656 C 9.589844 46.71875 10.410156 46.25 11.035156 45.957031 C 12.050781 45.488281 12.441406 45.410156 14.0625 45.410156 C 15.683594 45.410156 16.074219 45.488281 17.089844 45.957031 C 17.714844 46.25 18.535156 46.71875 18.867188 46.972656 C 19.21875 47.246094 19.589844 47.460938 19.667969 47.460938 C 19.902344 47.460938 21.679688 45.644531 21.679688 45.390625 C 21.679688 45.117188 20 43.886719 18.769531 43.261719 C 16.855469 42.304688 14.160156 41.972656 11.816406 42.421875 Z M 11.816406 42.421875 "/>
<path style=" stroke:none;fill-rule:nonzero;fill:rgb(96.078431%,96.078431%,96.078431%);fill-opacity:1;" d="M 12.890625 48.613281 C 12.148438 48.847656 11.230469 49.355469 10.976562 49.667969 C 10.800781 49.882812 10.957031 50.136719 11.796875 50.9375 C 12.792969 51.914062 12.851562 51.933594 13.457031 51.699219 C 13.90625 51.542969 14.21875 51.523438 14.628906 51.699219 C 15.15625 51.894531 15.253906 51.855469 16.210938 50.878906 C 16.796875 50.292969 17.167969 49.746094 17.109375 49.628906 C 16.640625 48.886719 13.984375 48.261719 12.890625 48.613281 Z M 12.890625 48.613281 "/>
<path style=" stroke:none;fill-rule:nonzero;fill:rgb(96.078431%,96.078431%,96.078431%);fill-opacity:1;" d="M 84.765625 48.613281 C 84.023438 48.847656 83.105469 49.355469 82.851562 49.667969 C 82.675781 49.882812 82.832031 50.136719 83.671875 50.9375 C 84.667969 51.914062 84.726562 51.933594 85.332031 51.699219 C 85.78125 51.542969 86.09375 51.523438 86.503906 51.699219 C 87.03125 51.894531 87.128906 51.855469 88.085938 50.878906 C 88.671875 50.292969 89.042969 49.746094 88.984375 49.628906 C 88.515625 48.886719 85.859375 48.261719 84.765625 48.613281 Z M 84.765625 48.613281 "/>
<path style=" stroke:none;fill-rule:nonzero;fill:rgb(96.078431%,96.078431%,96.078431%);fill-opacity:1;" d="M 7.8125 67.441406 C 6.855469 67.753906 5.214844 69.433594 4.921875 70.429688 C 4.746094 71.015625 4.6875 73.710938 4.6875 80.136719 L 4.6875 89.023438 L 4.003906 89.140625 C 3.105469 89.316406 2.03125 90.273438 1.738281 91.152344 C 1.40625 92.1875 1.660156 93.808594 2.382812 95.15625 C 3.066406 96.445312 3.691406 97.03125 5.15625 97.8125 L 6.152344 98.339844 L 34.472656 98.339844 L 35.703125 97.675781 C 36.386719 97.304688 37.148438 96.738281 37.421875 96.425781 C 38.691406 94.902344 39.335938 92.558594 38.886719 91.152344 C 38.59375 90.273438 37.519531 89.316406 36.621094 89.140625 L 35.9375 89.023438 L 35.9375 80.136719 C 35.9375 73.828125 35.878906 71.015625 35.703125 70.46875 C 35.585938 70.039062 35.097656 69.257812 34.628906 68.75 C 33.183594 67.128906 33.652344 67.1875 20.234375 67.207031 C 12.265625 67.226562 8.28125 67.304688 7.8125 67.441406 Z M 32.324219 70.800781 L 32.8125 71.269531 L 32.8125 89.0625 L 7.8125 89.0625 L 7.8125 71.269531 L 8.300781 70.800781 L 8.769531 70.3125 L 31.855469 70.3125 Z M 35.859375 92.8125 C 35.722656 93.574219 35.253906 94.257812 34.492188 94.804688 C 33.964844 95.214844 33.789062 95.214844 20.3125 95.214844 C 6.835938 95.214844 6.660156 95.214844 6.132812 94.804688 C 5.371094 94.257812 4.902344 93.574219 4.765625 92.8125 L 4.648438 92.1875 L 35.996094 92.1875 Z M 35.859375 92.8125 "/>
<path style=" stroke:none;fill-rule:nonzero;fill:rgb(96.078431%,96.078431%,96.078431%);fill-opacity:1;" d="M 10.9375 79.6875 L 10.9375 85.9375 L 29.6875 85.9375 L 29.6875 73.4375 L 10.9375 73.4375 Z M 26.5625 79.6875 L 26.5625 82.8125 L 14.0625 82.8125 L 14.0625 76.5625 L 26.5625 76.5625 Z M 26.5625 79.6875 "/>
<path style=" stroke:none;fill-rule:nonzero;fill:rgb(96.078431%,96.078431%,96.078431%);fill-opacity:1;" d="M 73.4375 67.441406 C 72.480469 67.753906 70.839844 69.433594 70.546875 70.429688 C 70.253906 71.445312 70.234375 75.507812 70.546875 76.386719 C 70.664062 76.757812 70.9375 77.285156 71.132812 77.578125 C 71.503906 78.125 71.503906 78.125 71.132812 78.652344 C 70.488281 79.589844 70.3125 80.46875 70.3125 82.8125 C 70.3125 85.15625 70.488281 86.035156 71.132812 86.953125 C 71.503906 87.5 71.503906 87.5 71.132812 88.046875 C 70.9375 88.339844 70.664062 88.867188 70.546875 89.238281 C 70.234375 90.117188 70.253906 94.179688 70.546875 95.195312 C 70.859375 96.269531 72.480469 97.890625 73.554688 98.203125 C 74.707031 98.535156 94.042969 98.535156 95.195312 98.203125 C 96.269531 97.890625 97.890625 96.269531 98.203125 95.195312 C 98.339844 94.746094 98.4375 93.339844 98.4375 92.050781 C 98.4375 89.863281 98.398438 89.628906 97.890625 88.59375 L 97.324219 87.5 L 97.890625 86.40625 C 98.398438 85.351562 98.4375 85.15625 98.4375 82.8125 C 98.4375 80.46875 98.398438 80.273438 97.890625 79.21875 L 97.324219 78.125 L 97.890625 77.03125 C 98.398438 75.996094 98.4375 75.761719 98.4375 73.574219 C 98.4375 70.742188 98.222656 69.960938 97.128906 68.75 C 95.703125 67.148438 95.957031 67.1875 84.296875 67.207031 C 77.480469 67.226562 73.886719 67.304688 73.4375 67.441406 Z M 94.824219 70.800781 C 95.292969 71.25 95.3125 71.40625 95.3125 73.4375 C 95.3125 75.46875 95.292969 75.625 94.824219 76.074219 L 94.355469 76.5625 L 74.394531 76.5625 L 73.925781 76.074219 C 73.457031 75.625 73.4375 75.46875 73.4375 73.4375 C 73.4375 71.40625 73.457031 71.25 73.925781 70.800781 L 74.394531 70.3125 L 94.355469 70.3125 Z M 94.824219 80.175781 C 95.292969 80.625 95.3125 80.78125 95.3125 82.8125 C 95.3125 84.84375 95.292969 85 94.824219 85.449219 L 94.355469 85.9375 L 74.394531 85.9375 L 73.925781 85.449219 C 73.457031 85 73.4375 84.84375 73.4375 82.8125 C 73.4375 80.78125 73.457031 80.625 73.925781 80.175781 L 74.394531 79.6875 L 94.355469 79.6875 Z M 94.824219 89.550781 C 95.292969 90 95.3125 90.15625 95.3125 92.1875 C 95.3125 94.21875 95.292969 94.375 94.824219 94.824219 L 94.355469 95.3125 L 74.394531 95.3125 L 73.925781 94.824219 C 73.457031 94.375 73.4375 94.21875 73.4375 92.1875 C 73.4375 90.15625 73.457031 90 73.925781 89.550781 L 74.394531 89.0625 L 94.355469 89.0625 Z M 94.824219 89.550781 "/>
<path style=" stroke:none;fill-rule:nonzero;fill:rgb(96.078431%,96.078431%,96.078431%);fill-opacity:1;" d="M 47.851562 71.992188 C 44.101562 72.65625 41.035156 74.0625 38.59375 76.210938 L 37.832031 76.875 L 38.964844 78.007812 L 40.097656 79.121094 L 40.703125 78.535156 C 43.828125 75.585938 49.121094 74.316406 53.613281 75.488281 C 55.273438 75.898438 57.734375 77.1875 58.964844 78.261719 L 60 79.160156 L 61.09375 78.046875 L 62.207031 76.933594 L 61.425781 76.230469 C 58.339844 73.496094 54.785156 72.109375 50.585938 71.972656 C 49.355469 71.933594 48.125 71.933594 47.851562 71.992188 Z M 47.851562 71.992188 "/>
<path style=" stroke:none;fill-rule:nonzero;fill:rgb(96.078431%,96.078431%,96.078431%);fill-opacity:1;" d="M 47.753906 78.359375 C 45.976562 78.691406 42.382812 80.722656 42.382812 81.40625 C 42.382812 81.601562 44.199219 83.398438 44.414062 83.398438 C 44.492188 83.398438 44.84375 83.183594 45.195312 82.910156 C 45.527344 82.65625 46.347656 82.1875 46.972656 81.894531 C 47.988281 81.425781 48.378906 81.347656 50 81.347656 C 51.621094 81.347656 52.011719 81.425781 53.027344 81.894531 C 53.652344 82.1875 54.472656 82.65625 54.804688 82.910156 C 55.15625 83.183594 55.527344 83.398438 55.605469 83.398438 C 55.839844 83.398438 57.617188 81.582031 57.617188 81.328125 C 57.617188 81.054688 55.9375 79.824219 54.707031 79.199219 C 52.792969 78.242188 50.097656 77.910156 47.753906 78.359375 Z M 47.753906 78.359375 "/>
<path style=" stroke:none;fill-rule:nonzero;fill:rgb(96.078431%,96.078431%,96.078431%);fill-opacity:1;" d="M 48.828125 84.550781 C 48.085938 84.785156 47.167969 85.292969 46.914062 85.605469 C 46.738281 85.820312 46.894531 86.074219 47.734375 86.875 C 48.730469 87.851562 48.789062 87.871094 49.394531 87.636719 C 49.84375 87.480469 50.15625 87.460938 50.566406 87.636719 C 51.09375 87.832031 51.191406 87.792969 52.148438 86.816406 C 52.734375 86.230469 53.105469 85.683594 53.046875 85.566406 C 52.578125 84.824219 49.921875 84.199219 48.828125 84.550781 Z M 48.828125 84.550781 "/>
</g>
</svg>
