<svg width="187" height="229" viewBox="0 0 187 229" fill="none" xmlns="http://www.w3.org/2000/svg">
<path d="M93.5 101.281C102.93 101.281 110.574 93.6369 110.574 84.207C110.574 74.7772 102.93 67.1328 93.5 67.1328C84.0702 67.1328 76.4258 74.7772 76.4258 84.207C76.4258 93.6369 84.0702 101.281 93.5 101.281Z" fill="white"/>
<path d="M93.5 146.996C106.902 160.031 120.121 167.742 130.77 167.742C134.258 167.742 137.562 167.008 140.316 165.355C149.863 159.848 153.352 146.078 150.047 126.434C149.496 122.945 148.762 119.457 147.844 115.785C151.516 114.684 154.82 113.582 158.125 112.48C176.668 105.32 186.949 95.4063 186.949 84.5742C186.949 73.5586 176.668 63.6445 158.125 56.668C154.82 55.3828 151.516 54.2812 147.844 53.3633C148.762 49.6914 149.496 46.2031 150.047 42.7148C153.168 22.7031 149.68 8.75 140.133 3.24219C137.379 1.58984 134.074 0.855469 130.586 0.855469C120.121 0.855469 106.719 8.5664 93.3164 21.6016C80.0977 8.5664 66.8789 0.855469 56.2305 0.855469C52.7422 0.855469 49.4375 1.58984 46.6836 3.24219C37.1367 8.75 33.6484 22.5195 36.9531 42.1641C37.5039 45.6523 38.2383 49.1406 39.1563 52.8125C35.4844 53.9141 32.1797 55.0156 28.875 56.1172C10.332 63.2773 0.0507812 73.1914 0.0507812 84.0234C0.0507812 95.0391 10.332 104.953 28.875 111.93C32.1797 113.215 35.4844 114.316 39.1563 115.234C38.2383 118.906 37.5039 122.395 36.9531 125.883C33.832 145.527 37.3203 159.48 46.6836 164.805C49.4375 166.457 52.7422 167.191 56.2305 167.191C66.8789 167.559 80.0977 159.848 93.5 146.996ZM83.2188 122.211C86.5234 122.395 90.0117 122.395 93.5 122.395C96.9883 122.395 100.477 122.395 103.781 122.211C100.477 126.617 96.9883 130.656 93.5 134.512C90.0117 130.656 86.5234 126.617 83.2188 122.211ZM60.4531 103.301C62.2891 106.422 63.9414 109.359 65.9609 112.297C60.2695 111.562 54.9453 110.645 49.8047 109.543C51.457 104.586 53.293 99.4453 55.4961 94.3047C56.9648 97.2422 58.6172 100.363 60.4531 103.301ZM49.8047 59.0547C54.9453 57.9531 60.2695 57.0352 65.9609 56.3008C64.125 59.2383 62.2891 62.1758 60.4531 65.2969C58.6172 68.418 56.9648 71.3555 55.4961 74.4766C53.1094 69.1524 51.2734 64.0117 49.8047 59.0547ZM59.9023 84.207C62.2891 79.25 64.8594 74.293 67.7969 69.3359C70.5508 64.5625 73.6719 59.7891 76.793 55.0156C82.3008 54.6484 87.8086 54.4648 93.5 54.4648C99.375 54.4648 104.883 54.6484 110.207 55.0156C113.512 59.7891 116.449 64.5625 119.203 69.3359C122.141 74.293 124.711 79.25 127.098 84.207C124.711 89.1641 122.141 94.1211 119.203 99.0781C116.449 103.852 113.328 108.625 110.207 113.398C104.699 113.766 99.1914 113.949 93.5 113.949C87.625 113.949 82.1172 113.766 76.793 113.398C73.4883 108.625 70.5508 103.852 67.7969 99.0781C64.8594 94.1211 62.2891 89.1641 59.9023 84.207ZM131.688 74.293L126.73 65.1133C124.895 61.9922 123.242 59.0547 121.223 56.1172C126.914 56.8516 132.238 57.7695 137.379 58.8711C135.727 64.0117 133.891 69.1523 131.688 74.293ZM131.688 94.1211C133.891 99.2617 135.727 104.402 137.379 109.359C132.238 110.461 126.914 111.379 121.223 112.113C123.059 109.176 124.895 106.238 126.73 103.117C128.383 100.363 130.035 97.2422 131.688 94.1211ZM135.91 157.828C134.441 158.746 132.605 159.113 130.586 159.113C121.59 159.113 110.391 151.77 99.375 140.754C104.699 135.063 109.84 128.637 114.98 121.477C123.609 120.742 131.871 119.457 139.582 117.621C140.5 120.926 141.051 124.23 141.602 127.535C144.172 143.141 142.152 154.34 135.91 157.828ZM145.457 61.0742C166.02 66.9492 178.32 75.9453 178.32 84.207C178.32 91.3672 169.875 98.5274 155.004 104.219C152.066 105.32 148.762 106.422 145.457 107.34C143.07 99.8125 140.133 92.1016 136.461 84.207C140.133 76.3125 143.254 68.6016 145.457 61.0742ZM130.77 9.30078C132.789 9.30078 134.441 9.66797 136.094 10.5859C142.152 14.0742 144.355 25.0898 141.785 40.8789C141.234 44 140.5 47.3047 139.766 50.793C132.055 49.1406 123.793 47.8555 115.164 46.9375C110.207 39.7773 104.883 33.3516 99.5586 27.6602C110.574 16.8281 121.773 9.30078 130.77 9.30078ZM103.781 46.2031C100.477 46.0195 96.9883 46.0195 93.5 46.0195C90.0117 46.0195 86.5234 46.0195 83.2188 46.2031C86.5234 41.7969 90.0117 37.7578 93.5 33.9023C96.9883 37.7578 100.477 41.9805 103.781 46.2031ZM51.0898 10.5859C52.5586 9.66797 54.3945 9.30078 56.4141 9.30078C65.4102 9.30078 76.6094 16.6445 87.625 27.6602C82.3008 33.3516 77.1601 39.7773 72.0195 46.9375C63.3906 47.6719 55.1289 48.957 47.418 50.793C46.5 47.4883 45.9492 44.1836 45.3984 40.8789C42.8281 25.2734 44.8477 14.2578 51.0898 10.5859ZM41.543 107.34C20.9805 101.465 8.67969 92.4688 8.67969 84.207C8.67969 77.0469 17.125 69.8867 31.9961 64.1953C34.9336 63.0938 38.2383 61.9922 41.543 61.0742C43.9297 68.6016 46.8672 76.3125 50.5391 84.207C46.8672 92.1016 43.7461 99.9961 41.543 107.34ZM45.3984 127.535C45.9492 124.414 46.6836 121.109 47.418 117.621C55.1289 119.273 63.3906 120.559 72.0195 121.477C76.9766 128.637 82.3008 135.063 87.625 140.754C76.6094 151.586 65.4102 159.113 56.4141 159.113C54.3945 159.113 52.7422 158.746 51.0898 157.828C44.8477 154.34 42.8281 143.141 45.3984 127.535ZM37.6875 203.176C41.7266 198.219 41.9102 192.711 39.707 187.203C37.5039 181.695 32.9141 179.125 27.2227 178.941C20.4297 178.758 13.4531 178.941 6.66016 178.941H5.375V226.492H10.8828V208.5H19.5117C20.6133 208.5 21.5312 208.867 22.082 209.785L33.0977 226.859C33.2812 227.227 33.832 227.777 34.1992 227.777H41.3594C36.9531 220.984 32.7305 214.559 28.3242 207.949C32.1797 207.398 35.4844 206.113 37.6875 203.176ZM10.8828 202.809V184.633H12.9023C17.125 184.633 21.5312 184.449 25.7539 184.816C30.7109 185 34.1992 188.855 34.1992 193.812C34.1992 198.77 30.1602 202.625 25.2031 202.809C20.7969 202.992 16.3906 202.809 10.8828 202.809ZM81.9336 205.195C78.9961 192.344 67.2461 189.039 58.25 193.078C51.2734 196.199 48.1523 202.258 47.9688 209.785C47.7852 215.477 49.4375 220.617 53.8438 224.473C58.8008 228.879 64.8594 229.43 71.1016 228.328C74.5898 227.594 77.7109 225.941 80.0977 223.371C79.1797 222.086 78.2617 220.801 77.3438 219.699C72.2031 224.105 66.5117 225.574 60.2695 222.637C56.2305 220.617 54.2109 215.66 53.8438 211.988H82.3008V209.602C82.4844 207.949 82.3008 206.48 81.9336 205.195ZM54.2109 208.133C53.6602 202.625 59.168 196.75 65.2266 196.75C72.2031 196.566 76.6094 200.789 76.793 208.133H54.2109ZM110.574 192.16C107.82 191.609 104.883 191.426 102.129 191.609C97.7227 191.977 93.8672 193.996 90.7461 197.301C91.6641 198.586 92.3984 199.871 93.5 201.34C93.8672 200.973 94.2344 200.605 94.6016 200.422C97.5391 197.668 101.027 196.199 105.25 196.566C108.555 196.75 111.676 197.852 112.594 201.156C113.328 203.727 113.145 206.48 113.328 209.234C112.777 209.234 112.594 209.051 112.41 208.867C108.004 205.195 103.047 204.461 97.7227 205.746C92.7656 207.031 89.6445 210.887 89.2773 215.844C88.9102 221.535 91.4805 225.758 96.4375 227.777C99.5586 229.062 103.047 229.062 106.352 228.328C108.922 227.777 110.023 226.309 113.695 224.289V226.676H118.836C118.836 219.332 119.02 210.336 118.836 201.891C118.836 196.566 115.715 193.262 110.574 192.16ZM113.145 215.293C112.961 215.844 113.145 216.395 113.145 216.945C113.145 220.801 112.227 222.086 108.555 223.555C105.984 224.473 103.23 224.84 100.477 223.922C97.3555 223.004 95.1524 220.25 95.1524 217.129C94.9688 214.008 96.9883 210.887 100.109 209.969C104.332 208.5 108.188 209.418 111.676 211.988C112.777 212.906 113.512 213.824 113.145 215.293ZM141.785 197.117C146.559 195.648 150.965 196.566 154.27 200.605L154.82 200.973C156.105 199.871 157.207 198.77 158.676 197.484C158.125 196.934 157.941 196.566 157.574 196.016C152.25 190.324 141.785 189.59 135.359 194.18C126.363 200.789 126.547 213.641 130.953 220.434C135.176 226.859 141.234 229.062 148.395 228.145C152.617 227.594 156.105 225.574 158.859 222.086C157.574 220.984 156.289 219.883 155.004 218.598C154.637 218.965 154.453 219.148 154.27 219.516C149.312 225.023 141.051 224.473 136.645 218.598C134.074 215.109 133.523 211.07 134.258 207.031C134.625 202.441 137.012 198.77 141.785 197.117ZM179.973 222.086C179.605 222.27 179.422 222.453 179.422 222.453C177.953 223.555 176.484 223.738 174.832 223.188C173.18 222.453 172.996 220.984 172.812 219.516V198.586C172.812 198.219 172.813 198.953 172.996 197.117H179.973V191.609H172.629V182.43H167.121V192.344H162.348C161.98 192.344 161.43 192.711 161.43 193.078C161.246 194.363 161.43 195.281 161.43 197.117H167.305V220.617C167.305 223.555 168.039 226.125 170.609 227.594C173.363 229.246 178.688 228.879 181.074 226.859C181.441 226.676 181.625 225.941 181.625 225.758C181.074 224.656 180.523 223.371 179.973 222.086Z" fill="white"/>
</svg>
