<?xml version="1.0" encoding="UTF-8" standalone="no"?>
<!-- Created with Inkscape (http://www.inkscape.org/) -->

<svg
   width="66.896088mm"
   height="58.459942mm"
   viewBox="0 0 66.896088 58.459942"
   version="1.1"
   id="svg1"
   xml:space="preserve"
   xmlns="http://www.w3.org/2000/svg"
   xmlns:svg="http://www.w3.org/2000/svg"><defs
     id="defs1"><linearGradient
       id="sqlite-original-a"
       x1="-15.615"
       x2="-6.7410002"
       y1="-9.1079998"
       y2="-9.1079998"
       gradientTransform="matrix(0,9.2712,-9.2712,0,-25.852,155.12)"
       gradientUnits="userSpaceOnUse"><stop
         stop-color="#95d7f4"
         offset="0"
         id="stop1" /><stop
         stop-color="#0f7fcc"
         offset=".92"
         id="stop2" /><stop
         stop-color="#0f7fcc"
         offset="1"
         id="stop3" /></linearGradient></defs><g
     id="layer1"
     transform="translate(-72.744611,-109.00972)"><g
       id="g2"
       transform="translate(-1.0241379,-20.482759)"><path
         fill="#00618a"
         d="m 131.43464,187.17931 -0.69215,-0.67124 c -0.6559,-0.87101 -1.49966,-1.63619 -2.38522,-2.27145 -0.70617,-0.50694 -2.29155,-1.19169 -2.5863,-2.01322 l -0.0542,-0.0516 c 0.50086,-0.0566 1.08559,-0.23759 1.54781,-0.36168 0.77629,-0.20796 1.41711,-0.15425 2.2188,-0.36116 0.36142,-0.10319 0.76703,-0.20664 1.03161,-0.30983 v -0.20637 c -0.26458,-0.41566 -0.64214,-0.966 -1.084,-1.34224 -1.15596,-0.98425 -2.3921,-1.9677 -3.6912,-2.78791 -0.72046,-0.45455 -1.59835,-0.75009 -2.36167,-1.13559 -0.25691,-0.12991 -0.70168,-0.19738 -0.87154,-0.41328 -0.40137,-0.51118 -0.61595,-1.1594 -0.92551,-1.75498 -0.64796,-1.24804 -1.28296,-2.61091 -1.85711,-3.92404 -0.39158,-0.89535 -0.64638,-1.778 -1.1348,-2.58127 -2.34421,-3.85419 -4.86701,-6.18014 -8.77543,-8.46667 -0.83212,-0.48631 -1.8333,-0.67813 -2.89163,-0.92948 -0.56727,-0.0341 -1.13533,-0.0688 -1.70313,-0.10346 -0.34687,-0.14446 -0.70749,-0.56859 -1.0324,-0.77443 -1.2954,-0.81809 -4.61672,-2.59742 -5.57583,-0.25797 -0.60563,1.47664 0.90487,2.91703 1.44515,3.66554 0.37968,0.5244 0.86519,1.1131 1.13586,1.70338 0.17859,0.38815 0.20902,0.77735 0.36168,1.18772 0.37518,1.01124 0.70142,2.11137 1.18719,3.04562 0.24527,0.47308 0.51567,0.97102 0.82603,1.39383 0.18997,0.25955 0.51594,0.37385 0.56753,0.77443 -0.31856,0.44609 -0.33681,1.13877 -0.51594,1.70392 -0.80698,2.54397 -0.50218,5.70627 0.67125,7.58904 0.35983,0.57838 1.20809,1.81795 2.37464,1.34223 1.02023,-0.41539 0.85354,-1.70338 1.14538,-2.8395 0.0659,-0.25718 -0.0489,-0.44662 0.21563,-0.61939 v 0.0516 a 34.025417,34.025417 0 0 0 0.86837,1.85843 c 0.68791,1.10781 1.82271,2.26536 2.85697,3.04641 0.53631,0.40508 1.03716,1.10517 1.56633,1.34223 v -0.0267 h 0.0585 c -0.13414,-0.26458 -0.34449,-0.30876 -0.51594,-0.4773 -0.40401,-0.39582 -0.85354,-0.89483 -1.18718,-1.34859 -0.94086,-1.27714 -1.77218,-2.67811 -2.52968,-4.13332 -0.36195,-0.69479 -0.67654,-1.46288 -0.98134,-2.16984 -0.11721,-0.27253 -0.11589,-0.6858 -0.36089,-0.82683 -0.33417,0.51806 -0.82603,0.93663 -1.08453,1.54861 -0.41301,0.9779 -0.4662,2.17064 -0.61939,3.40704 -0.0907,0.0323 -0.0503,0.01 -0.10345,0.0513 -0.71914,-0.1733 -0.97155,-0.91334 -1.23905,-1.54861 -0.67601,-1.60602 -0.80142,-4.19179 -0.20663,-6.04017 0.15398,-0.47863 0.84957,-1.98464 0.56779,-2.42676 -0.13441,-0.44053 -0.57785,-0.69585 -0.82576,-1.03267 -0.30718,-0.41645 -0.61357,-0.96467 -0.8263,-1.44569 -0.55324,-1.25174 -0.81121,-2.65747 -1.39382,-3.92324 -0.27861,-0.6051 -0.7493,-1.21761 -1.13586,-1.75524 -0.42783,-0.59611 -0.90725,-1.03505 -1.23931,-1.75551 -0.11774,-0.25612 -0.27807,-0.66623 -0.10318,-0.92949 0.0556,-0.17753 0.13414,-0.25161 0.30982,-0.30956 0.29978,-0.23098 1.13321,0.0767 1.44542,0.20611 0.82788,0.34396 1.51897,0.66146 2.22038,1.12607 0.33629,0.22331 0.67707,0.50006 1.084,0.76464 h 0.46461 c 0.72681,0 1.54093,0.0614 2.22012,0.26776 1.19988,0.36486 2.27542,0.93716 3.25226,1.5539 2.9755,1.87907 5.40835,4.55613 7.07284,7.74648 0.26776,0.51382 0.38365,1.00515 0.61939,1.54993 0.47572,1.09881 1.07527,2.2299 1.54861,3.30438 0.47254,1.07235 0.93292,2.15423 1.60072,3.04641 0.35111,0.46884 1.70683,0.72072 2.32305,0.98134 0.43206,0.1823 1.13982,0.3728 1.54887,0.61912 0.78131,0.47149 1.53828,1.03294 2.27171,1.54914 0.36618,0.2577 1.49225,0.82391 1.54861,1.29064 -1.81584,-0.0497 -3.20252,0.11959 -4.38812,0.61939 -0.33681,0.14208 -0.87445,0.14605 -0.92948,0.56806 0.18521,0.19394 0.21405,0.48392 0.36116,0.72257 0.28284,0.45773 0.76094,1.0721 1.18745,1.39383 0.46619,0.35189 0.94615,0.72787 1.44568,1.0324 0.88873,0.54161 1.88039,0.85117 2.73606,1.39383 0.50429,0.32014 1.04722,0.7231 1.53855,1.084 0.24341,0.17859 0.23574,0.45614 0.76491,0.56806 v -0.0513 c -0.26432,-0.21035 -0.2503,-0.50086 -0.4027,-0.72179 z m -25.39021,-26.27789 c -0.37862,-0.007 -0.66516,0.0415 -0.92974,0.10292 v 0.0386 h 0.0524 c 0.18071,0.26459 0.49954,0.61648 0.72258,0.9361 l 0.51647,1.08691 0.0511,-0.0495 c 0.31988,-0.22569 0.46646,-0.585 0.46461,-1.13533 -0.12779,-0.13467 -0.14711,-0.30321 -0.2577,-0.46408 -0.14764,-0.21405 -0.43366,-0.33549 -0.61966,-0.51567 z"
         id="path1"
         style="stroke-width:0.264583" /><g
         id="g1"
         transform="matrix(0.26458333,0,0,0.26458333,71.887304,131.49782)"><path
           d="m 69.5,99.176 c -0.059,-0.73 -0.094,-1.2 -0.094,-1.2 0,0 -2.206,-14.889 -4.836,-19.334 -0.414,-0.707 0.043,-3.594 1.207,-7.88 0.68,1.169 3.54,6.192 4.118,7.81 0.648,1.824 0.78,2.347 0.78,2.347 0,0 -1.57,-8.082 -4.144,-12.797 a 162.286,162.286 0 0 1 2.004,-6.265 c 0.973,1.71 3.313,5.859 3.828,7.3 0.102,0.293 0.192,0.543 0.27,0.774 0.023,-0.137 0.05,-0.274 0.074,-0.414 -0.59,-2.504 -1.75,-6.86 -3.336,-10.082 3.52,-18.328 15.531,-42.824 27.84,-53.754 H 16.9 c -5.387,0 -9.789,4.406 -9.789,9.789 v 88.57 c 0,5.383 4.406,9.789 9.79,9.789 H 69.798 A 118.657,118.657 0 0 1 69.501,99.177"
           fill="#0b7fcc"
           id="path3" /><path
           d="m 65.777,70.762 c 0.68,1.168 3.54,6.188 4.117,7.809 0.649,1.824 0.781,2.347 0.781,2.347 0,0 -1.57,-8.082 -4.144,-12.797 a 164.535,164.535 0 0 1 2.004,-6.27 c 0.887,1.567 2.922,5.169 3.652,6.872 l 0.082,-0.961 C 71.621,65.266 70.636,61.996 69.371,59.434 72.613,42.563 83.051,20.464 94.297,8.536 H 16.899 a 6.94,6.94 0 0 0 -6.934,6.933 v 82.11 c 17.527,-6.731 38.664,-12.88 56.855,-12.614 -0.672,-2.605 -1.441,-4.96 -2.25,-6.324 -0.414,-0.707 0.043,-3.597 1.207,-7.879"
           fill="url(#sqlite-original-a)"
           id="path4"
           style="fill:url(#sqlite-original-a)" /><path
           d="m 115.95,2.781 c -5.5,-4.906 -12.164,-2.933 -18.734,2.899 a 44.347,44.347 0 0 0 -2.914,2.859 c -11.25,11.926 -21.684,34.023 -24.926,50.895 1.262,2.563 2.25,5.832 2.894,8.328 0.168,0.64 0.32,1.242 0.442,1.754 0.285,1.207 0.437,1.996 0.437,1.996 0,0 -0.101,-0.383 -0.515,-1.582 -0.078,-0.23 -0.168,-0.484 -0.27,-0.773 -0.043,-0.125 -0.105,-0.274 -0.172,-0.434 -0.734,-1.703 -2.765,-5.305 -3.656,-6.867 -0.762,2.25 -1.437,4.36 -2.004,6.265 2.578,4.715 4.149,12.797 4.149,12.797 0,0 -0.137,-0.523 -0.782,-2.347 -0.578,-1.621 -3.441,-6.64 -4.117,-7.809 -1.164,4.281 -1.625,7.172 -1.207,7.88 0.809,1.362 1.574,3.722 2.25,6.323 1.524,5.867 2.586,13.012 2.586,13.012 0,0 0.031,0.469 0.094,1.2 a 118.653,118.653 0 0 0 0.297,14.651 c 0.504,6.11 1.453,11.363 2.664,14.172 l 0.828,-0.449 C 71.513,122.016 70.79,114.758 71.106,106.395 71.586,93.602 74.528,78.18 79.962,62.106 89.153,37.836 101.9,18.368 113.564,9.071 102.931,18.673 88.541,49.755 84.232,61.266 79.412,74.157 75.994,86.25 73.931,97.84 77.481,86.977 88.978,82.31 88.978,82.31 c 0,0 5.637,-6.958 12.227,-16.888 -3.95,0.903 -10.43,2.442 -12.598,3.352 -3.2,1.344 -4.067,1.8 -4.067,1.8 0,0 10.371,-6.312 19.27,-9.171 12.234,-19.27 25.562,-46.648 12.141,-58.621"
           fill="#003956"
           id="path5" /></g><path
         fill-rule="evenodd"
         clip-rule="evenodd"
         fill="#336791"
         d="m 140.6443,149.01451 c -0.11906,-0.77206 -0.76756,-1.27768 -1.52189,-1.31181 -0.27305,-0.0124 -0.55033,0.0161 -0.82258,0.0508 -0.32888,0.0418 -0.65379,0.11589 -0.98187,0.16484 -0.22675,0.0339 -0.45667,0.0495 -0.68316,0.0728 l -0.006,-0.0294 c 0.42281,-0.79851 0.86334,-1.5883 1.26339,-2.39819 0.30665,-0.62124 0.56912,-1.26497 0.84031,-1.90341 0.44874,-1.0578 0.80725,-2.14841 1.10411,-3.25675 0.28443,-1.06125 0.52785,-2.13413 0.60431,-3.23506 0.0307,-0.43974 0.0519,-0.88133 0.0495,-1.3216 -0.002,-0.3511 -0.0399,-0.70273 -0.0751,-1.05277 -0.0397,-0.40111 -0.16087,-0.78132 -0.32861,-1.14724 -0.2212,-0.48207 -0.5641,-0.87762 -0.92499,-1.25333 -0.28892,-0.30083 -0.60669,-0.57494 -0.92181,-0.84878 -0.44926,-0.39079 -0.95435,-0.70273 -1.47902,-0.97975 a 8.5142917,8.5142917 0 0 0 -1.87589,-0.72761 c -0.39503,-0.1008 -0.79904,-0.17568 -1.19909,-0.25558 -0.14394,-0.0291 -0.28814,-0.0892 -0.43207,-0.0892 h -2.7096 c -0.0979,0 -0.19499,0.0505 -0.29368,0.0616 -0.64876,0.0722 -1.28985,0.19447 -1.91241,0.38735 -0.23284,0.0722 -0.44556,0.0267 -0.66675,0.006 -0.1696,-0.0156 -0.33629,-0.0611 -0.50589,-0.0696 -0.64611,-0.0323 -1.29301,-0.0796 -1.93886,-0.0728 -0.61886,0.006 -1.23137,0.10822 -1.83039,0.27835 -0.50139,0.14234 -0.99192,0.31617 -1.44119,0.5797 -0.19235,0.11271 -0.34475,0.0915 -0.54371,0.0341 -0.66861,-0.19288 -1.34197,-0.37412 -2.02116,-0.52626 -0.42333,-0.0947 -0.85857,-0.14181 -1.2909,-0.18706 a 15.137871,15.137871 0 0 0 -1.2483,-0.0778 c -0.40693,-0.009 -0.81677,-0.008 -1.22185,0.0275 a 7.9798333,7.9798333 0 0 0 -1.89389,0.40032 6.3005229,6.3005229 0 0 0 -1.87484,1.02261 c -0.57335,0.45376 -1.0332,1.0078 -1.40309,1.64042 -0.38973,0.66754 -0.65696,1.38218 -0.82312,2.1328 -0.09,0.40667 -0.14684,0.82471 -0.20849,1.23772 -0.0193,0.12859 0.19367,0.25718 -0.0709,0.38524 v 1.79758 c 0.26458,0.11959 0.055,0.23891 0.0704,0.35877 0.0368,0.28813 0.0693,0.57864 0.118,0.86466 0.077,0.4527 0.16828,0.90408 0.26141,1.35387 a 85.952542,85.952542 0 0 0 0.40905,1.88145 c 0.10477,0.45509 0.2241,0.90752 0.34898,1.35758 0.19077,0.68739 0.37862,1.3761 0.59426,2.05581 0.2003,0.63156 0.42969,1.25413 0.65723,1.87669 0.31512,0.86122 0.69242,1.69466 1.14485,2.49344 0.39132,0.69162 0.83847,1.33932 1.43828,1.87219 0.39529,0.3511 0.83529,0.62098 1.34752,0.75591 0.40243,0.10584 0.81148,0.11854 1.22343,0.0341 a 2.9048604,2.9048604 0 0 0 1.27635,-0.61145 c 0.0431,-0.0354 0.0905,-0.0624 0.14156,0.003 0.19447,0.24633 0.45482,0.41063 0.72707,0.55272 0.73475,0.38311 1.53538,0.49794 2.34871,0.54477 0.19685,0.0114 0.39582,-0.0169 0.59426,-0.0225 0.38655,-0.0106 0.76226,-0.086 1.13188,-0.19288 0.19368,-0.0561 0.38285,-0.12726 0.57997,-0.19367 0.0103,0.20981 0.0236,0.41195 0.0296,0.61409 l 0.0275,1.10226 c 0.005,0.16774 0.0116,0.33602 0.0272,0.50297 0.04,0.43048 0.0791,0.86122 0.13044,1.29037 0.0357,0.29581 0.0728,0.59399 0.14234,0.88265 a 10.100733,10.100733 0 0 0 0.57098,1.70075 3.6538958,3.6538958 0 0 0 1.03187,1.37186 c 0.58738,0.48578 1.27582,0.69294 2.0193,0.73131 0.30745,0.0161 0.62362,10e-4 0.92631,-0.054 a 12.967229,12.967229 0 0 0 1.42531,-0.33734 c 0.95012,-0.28681 1.77138,-0.78211 2.38495,-1.58248 0.34925,-0.45614 0.63606,-0.94959 0.82021,-1.49436 0.15187,-0.45006 0.29501,-0.90461 0.40878,-1.36525 0.09,-0.36301 0.13441,-0.7374 0.18918,-1.10808 0.0363,-0.24527 0.0579,-0.49292 0.0807,-0.74004 0.037,-0.40137 0.0749,-0.80248 0.1016,-1.20465 0.0185,-0.27993 0.0177,-0.56118 0.0288,-0.84164 0.003,-0.0855 0.0172,-0.17039 0.0251,-0.25558 0.007,-0.0788 0.0471,-0.1061 0.12753,-0.10478 0.28337,0.004 0.56726,0.0116 0.84984,-0.001 0.31671,-0.0143 0.63632,-0.0278 0.948,-0.0802 a 14.960071,14.960071 0 0 0 1.32027,-0.28231 c 0.51409,-0.13441 0.98558,-0.37518 1.43934,-0.64955 0.52863,-0.31935 1.01044,-0.694 1.40149,-1.1766 0.33999,-0.42096 0.50112,-0.90752 0.4191,-1.43881 z m -0.90276,0.25982 c -0.0175,0.24209 -0.12832,0.44953 -0.28919,0.6268 -0.75909,0.83687 -1.71132,1.34461 -2.80061,1.59464 -0.41381,0.0947 -0.84085,0.14393 -1.26445,0.18309 a 8.4912729,8.4912729 0 0 1 -1.08849,0.0257 c -0.26617,-0.0101 -0.53023,-0.0709 -0.80222,-0.11006 -0.0272,0.2487 -0.0532,0.50773 -0.0847,0.76623 l -0.12674,0.99086 c -0.0384,0.31406 -0.0683,0.62918 -0.10768,0.94298 -0.0386,0.30453 -0.0868,0.60801 -0.12727,0.91255 -0.0378,0.28363 -0.0656,0.56859 -0.10768,0.85169 -0.0648,0.43392 -0.12674,0.86889 -0.2114,1.29937 -0.1016,0.51461 -0.25744,1.01309 -0.51171,1.47717 -0.31009,0.56647 -0.74983,0.99801 -1.30942,1.31762 -0.57679,0.32967 -1.20729,0.50112 -1.84653,0.64453 -0.45244,0.1016 -0.91863,0.11827 -1.37689,0.077 -0.79481,-0.072 -1.4732,-0.41196 -1.98596,-1.02817 -0.48948,-0.58817 -0.82074,-1.26233 -0.93927,-2.02539 a 16.695737,16.695737 0 0 1 -0.12991,-1.09432 28.592727,28.592727 0 0 1 -0.0791,-1.22237 66.199544,66.199544 0 0 1 -0.0521,-1.55337 c -0.014,-0.63659 -0.0185,-1.27317 -0.0275,-1.90976 l -0.002,-0.0243 c -0.32385,0.1942 -0.64215,0.40693 -0.97975,0.58208 a 3.2787167,3.2787167 0 0 1 -1.26948,0.35798 c -0.34872,0.0265 -0.70193,0.0505 -1.04907,0.0228 -0.56912,-0.0458 -1.13771,-0.13494 -1.6473,-0.41513 -0.20664,-0.11377 -0.42227,-0.25215 -0.56462,-0.43392 -0.34131,-0.4355 -0.1778,-0.98583 0.33682,-1.25068 0.3556,-0.18336 0.74374,-0.25982 1.12924,-0.34899 a 11.739033,11.739033 0 0 0 0.9951,-0.27225 c 0.32332,-0.10584 0.52731,-0.36804 0.72866,-0.62521 l 0.31909,-0.41037 c -0.13309,-0.014 -0.2585,-0.0283 -0.38391,-0.04 -0.38074,-0.036 -0.74401,-0.14076 -1.09141,-0.29475 -0.29739,-0.1315 -0.30189,-0.14578 -0.5199,0.0908 -0.36407,0.39529 -0.71808,0.79984 -1.07474,1.20174 -0.26247,0.29554 -0.52335,0.59293 -0.78449,0.88926 -0.25877,0.29316 -0.50112,0.60299 -0.77973,0.87577 -0.41379,0.40509 -0.91253,0.64877 -1.50758,0.62126 -0.38179,-0.0175 -0.73131,-0.15134 -1.04563,-0.37015 -0.64876,-0.45191 -1.08585,-1.084 -1.48379,-1.74784 -0.50985,-0.85064 -0.90117,-1.75684 -1.23613,-2.6879 -0.23178,-0.64347 -0.46461,-1.28747 -0.66702,-1.94019 -0.21986,-0.70935 -0.41275,-1.4277 -0.60245,-2.14577 a 41.638273,41.638273 0 0 1 -0.39212,-1.63566 57.180956,57.180956 0 0 1 -0.38735,-1.87298 c -0.0789,-0.42307 -0.12462,-0.85223 -0.18839,-1.27821 -0.086,-0.57414 -0.10186,-1.15358 -0.0706,-1.73011 0.0278,-0.51937 0.1024,-1.03743 0.17648,-1.55336 0.10266,-0.71385 0.33787,-1.38748 0.67627,-2.02354 0.20718,-0.38973 0.46436,-0.74401 0.76175,-1.07315 0.48816,-0.54028 1.07897,-0.9308 1.7362,-1.22396 0.45931,-0.20479 0.94456,-0.32808 1.43906,-0.42439 0.73396,-0.14288 1.47453,-0.13732 2.21536,-0.12198 0.32385,0.007 0.64638,0.0656 0.96996,0.0976 0.69665,0.0693 1.37954,0.2159 2.0537,0.39687 0.49133,0.13176 0.97261,0.30242 1.45997,0.45059 0.049,0.0148 0.12065,0.0135 0.1606,-0.0127 0.6604,-0.43101 1.38218,-0.71544 2.14974,-0.87816 0.29131,-0.0616 0.59187,-0.0886 0.88979,-0.10768 0.36222,-0.023 0.72734,-0.0442 1.08876,-0.0233 0.43445,0.0249 0.86678,0.0889 1.29858,0.14816 0.20955,0.0286 0.41407,0.10134 0.62415,0.12118 0.10054,0.01 0.20717,-0.064 0.31353,-0.0886 0.54213,-0.12515 1.08188,-0.26459 1.62878,-0.36354 0.40719,-0.0736 0.82312,-0.10822 1.23719,-0.13203 0.4617,-0.0265 0.92683,-0.0458 1.38827,-0.0236 a 9.699625,9.699625 0 0 1 1.73434,0.24421 c 0.70829,0.16484 1.38774,0.40429 2.03359,0.7366 0.4826,0.24818 0.94139,0.53605 1.3544,0.89006 0.27067,0.23231 0.54769,0.4617 0.79216,0.72046 0.30163,0.31909 0.60934,0.63844 0.79852,1.04722 0.14234,0.30824 0.24394,0.62733 0.27199,0.96494 0.0349,0.41963 0.0773,0.84084 0.0733,1.261 -0.004,0.40191 -0.0585,0.80354 -0.0974,1.20439 -0.0884,0.91387 -0.28707,1.80789 -0.52837,2.69001 a 30.948842,30.948842 0 0 1 -0.68501,2.16165 c -0.23257,0.65643 -0.50086,1.30096 -0.77205,1.94284 a 21.185187,21.185187 0 0 1 -0.65035,1.40308 c -0.44371,0.86942 -0.90514,1.72985 -1.4388,2.54873 -0.0921,0.14155 -0.17939,0.28655 -0.26935,0.43101 0.23283,0.15716 0.49662,0.21246 0.76226,0.24103 0.25268,0.0275 0.51039,0.0439 0.7628,0.0251 0.40402,-0.0299 0.80671,-0.0876 1.20835,-0.14393 0.39793,-0.0556 0.78793,-0.1688 1.19645,-0.1389 0.40798,0.0296 0.69982,0.33972 0.67204,0.72204 z m -5.82427,-0.88715 c -0.17331,-0.22384 -0.35005,-0.44503 -0.51964,-0.67151 -0.26618,-0.3556 -0.45747,-0.75274 -0.64956,-1.15173 -0.18203,-0.37809 -0.40534,-0.73607 -0.59716,-1.10993 -0.3347,-0.6522 -0.67548,-1.30228 -0.98372,-1.96718 -0.38762,-0.83529 -0.69321,-1.70021 -0.78952,-2.62546 -0.0408,-0.39158 -0.0511,-0.78264 0.028,-1.17051 0.12674,-0.61939 0.45032,-1.10385 0.9943,-1.43616 0.50457,-0.30824 1.0668,-0.40773 1.6428,-0.43895 0.35745,-0.0193 0.71649,-0.003 1.08744,-0.003 l -0.0124,-0.0627 c -0.23072,-0.48234 -0.44635,-0.97288 -0.69876,-1.44383 -0.35613,-0.66464 -0.81175,-1.26392 -1.31922,-1.81954 -0.37597,-0.41143 -0.78316,-0.79322 -1.22925,-1.13057 -0.43868,-0.33205 -0.90091,-0.62865 -1.39409,-0.87127 -0.58817,-0.28919 -1.20068,-0.51276 -1.84335,-0.65537 -0.61754,-0.13706 -1.23905,-0.22093 -1.87246,-0.22781 -0.54028,-0.006 -1.07712,0.0185 -1.60337,0.14049 -0.79428,0.18389 -1.52083,0.51091 -2.15292,1.04061 a 5.5940854,5.5940854 0 0 0 -0.93054,0.99748 c -0.31644,0.43471 -0.57176,0.90408 -0.79004,1.39621 -0.29951,0.67521 -0.50509,1.37795 -0.64559,2.10026 -0.0704,0.3601 -0.12541,0.72337 -0.1815,1.08638 -0.0196,0.127 -0.0212,0.25691 -0.0325,0.40243 0.0976,-0.0508 0.16801,-0.09 0.23997,-0.12488 l 0.23416,-0.10504 c 0.7919,-0.36222 1.61237,-0.59532 2.49423,-0.56859 0.37465,0.0114 0.73316,0.0855 1.06627,0.2495 0.63897,0.31512 1.01282,0.8509 1.17528,1.52902 0.11218,0.46805 0.18891,0.94536 0.26352,1.42135 0.0585,0.37174 0.11827,0.74744 0.12515,1.12236 0.01,0.54795 -0.018,1.09696 -0.0479,1.64465 a 4.6000458,4.6000458 0 0 1 -0.28575,1.36154 c -0.29634,0.7919 -0.62654,1.57084 -0.93504,2.35824 -0.10186,0.26008 -0.18018,0.52943 -0.27649,0.81544 0.1487,0 0.26935,-0.001 0.39,5.3e-4 0.0471,7.9e-4 0.0952,0.002 0.14076,0.013 0.35454,0.0836 0.66198,0.24421 0.91413,0.517 0.33629,0.363 0.51276,0.7866 0.52176,1.27688 0.005,0.27172 -0.0236,0.54424 -0.0222,0.81597 0.006,1.2663 0.0151,2.53259 0.0257,3.79862 0.002,0.20691 0.0122,0.41408 0.027,0.62072 0.031,0.43259 0.0622,0.86545 0.10451,1.29698 0.0296,0.30613 0.0709,0.61172 0.11933,0.91573 0.0685,0.43074 0.26458,0.81412 0.48709,1.18057 0.19156,0.31512 0.44054,0.58287 0.76862,0.76755 0.55748,0.3138 1.15782,0.33999 1.76292,0.22437 0.40878,-0.078 0.81015,-0.20346 1.20703,-0.33285 a 2.6797,2.6797 0 0 0 1.04166,-0.62282 c 0.27808,-0.26962 0.47546,-0.59823 0.60854,-0.96097 0.25824,-0.70353 0.33867,-1.44436 0.44556,-2.17937 0.04,-0.27517 0.0746,-0.55113 0.11113,-0.82683 0.0415,-0.31379 0.0836,-0.62732 0.12382,-0.94086 0.0296,-0.23362 0.0566,-0.46778 0.0852,-0.70141 0.0408,-0.33549 0.0839,-0.67071 0.12277,-1.00647 0.0299,-0.25956 0.0553,-0.52017 0.0818,-0.78026 0.0341,-0.33231 0.0709,-0.66463 0.10028,-0.99748 0.0228,-0.25267 0.0135,-0.50985 0.0582,-0.75776 0.0823,-0.45456 0.29712,-0.84138 0.70008,-1.09141 0.16854,-0.10451 0.35878,-0.1733 0.54584,-0.26167 z m -15.23921,-1.86584 a 4.6370875,4.6370875 0 0 1 -0.35825,-1.48749 c -0.0339,-0.48286 0.0236,-0.96388 0.073,-1.44462 0.0481,-0.46567 0.0881,-0.93345 0.10213,-1.40124 0.0233,-0.76888 -0.0286,-1.5367 -0.0653,-2.30505 -0.0222,-0.45746 0.031,-0.92048 0.0717,-1.37901 0.0368,-0.41301 0.0825,-0.82708 0.1606,-1.23401 0.13097,-0.68289 0.3048,-1.35599 0.55192,-2.00845 0.23469,-0.6186 0.5043,-1.22106 0.88504,-1.76345 0.26088,-0.37201 0.55695,-0.71967 0.84137,-1.08321 l -0.0844,-0.0299 c -0.92552,-0.29396 -1.86611,-0.52361 -2.83343,-0.62389 -0.45746,-0.0474 -0.91652,-0.0751 -1.3753,-0.1024 -0.14076,-0.008 -0.28364,0.0106 -0.42492,0.0241 -0.34978,0.0333 -0.7038,0.0466 -1.04802,0.11219 -0.58579,0.11138 -1.14776,0.29871 -1.6682,0.60377 -0.46725,0.27385 -0.85963,0.62786 -1.18824,1.05252 -0.36301,0.46884 -0.60722,0.99906 -0.78264,1.56448 -0.20717,0.66701 -0.30587,1.35334 -0.33259,2.04602 -0.0233,0.60722 -0.0349,1.21788 0.0699,1.82272 0.078,0.45032 0.13018,0.9054 0.21617,1.35387 0.11721,0.61145 0.24288,1.22158 0.38814,1.82668 0.2077,0.86625 0.41513,1.73382 0.66119,2.58948 0.23548,0.81994 0.50112,1.63248 0.78899,2.43522 0.23548,0.65511 0.50774,1.29805 0.79454,1.93252 0.1868,0.41328 0.41302,0.81095 0.65009,1.19803 0.25214,0.4109 0.53895,0.8009 0.92815,1.09908 0.49107,0.3765 0.87128,0.43498 1.37028,0.022 0.21378,-0.177 0.39449,-0.39555 0.5805,-0.60378 0.29554,-0.33073 0.58076,-0.67045 0.87497,-1.00224 0.37465,-0.4228 0.75407,-0.84111 1.13057,-1.2618 0.0796,-0.0889 0.1561,-0.18044 0.23363,-0.2704 l -0.12806,-0.11245 a 4.6818021,4.6818021 0 0 1 -1.08347,-1.56924 z m 14.20495,-12.58597 a 16.2687,16.2687 0 0 1 0.87551,1.11231 c 0.52916,0.74322 0.95197,1.5457 1.26338,2.40427 0.13785,0.37836 0.24792,0.76041 0.1987,1.17449 -0.0341,0.28998 -0.0312,0.5842 -0.0569,0.87577 -0.0214,0.24262 -0.0598,0.48392 -0.0913,0.72575 -0.0471,0.3646 -0.11535,0.72813 -0.13573,1.09432 -0.0193,0.34845 8e-4,0.70061 0.0228,1.04986 0.0222,0.35481 0.0701,0.70803 0.10266,1.0623 0.0368,0.40164 0.0863,0.80328 0.0976,1.20571 0.009,0.33047 -0.0201,0.66305 -0.049,0.99298 -0.0344,0.39741 -0.1352,0.78211 -0.28548,1.1512 -0.10557,0.25983 -0.23178,0.51171 -0.35111,0.77179 l 0.0479,0.0508 0.0728,0.0564 0.0733,-0.13123 a 24.770556,24.770556 0 0 0 1.64624,-3.04086 49.300606,49.300606 0 0 0 0.86969,-2.05475 c 0.42969,-1.07527 0.76968,-2.1807 1.03268,-3.30809 0.118,-0.50615 0.20822,-1.01997 0.28839,-1.53379 0.0624,-0.40164 0.11457,-0.80804 0.12621,-1.21338 0.0124,-0.42995 -0.0114,-0.86333 -0.0511,-1.29222 -0.0296,-0.32385 -0.10953,-0.64982 -0.31247,-0.91308 -0.32623,-0.42386 -0.67839,-0.8292 -1.11151,-1.14988 -0.3646,-0.27014 -0.72787,-0.54716 -1.11919,-0.77443 -0.62045,-0.35984 -1.29196,-0.59955 -1.99364,-0.7628 -0.68474,-0.15954 -1.37848,-0.22833 -2.07671,-0.24289 -0.41169,-0.009 -0.82524,0.0355 -1.23613,0.0741 -0.37227,0.0349 -0.74216,0.0944 -1.11708,0.14367 0.40217,0.22622 0.79878,0.4273 1.1729,0.66437 0.78661,0.49821 1.49146,1.09775 2.09656,1.80736 z m -10.21953,13.94937 c 0.25426,-0.81307 0.6006,-1.58936 0.9361,-2.37041 0.27199,-0.63341 0.42068,-1.30069 0.47016,-1.98596 0.0246,-0.33787 0.0177,-0.67998 0.001,-1.01891 a 11.807825,11.807825 0 0 0 -0.10376,-1.12686 c -0.0704,-0.47651 -0.15055,-0.95329 -0.26326,-1.42108 -0.12224,-0.50614 -0.43048,-0.85857 -0.95858,-0.98848 -0.32174,-0.0791 -0.64135,-0.0759 -0.96653,-0.0246 -0.79428,0.12515 -1.52135,0.41778 -2.19869,0.8464 -0.13626,0.0863 -0.21113,0.15584 -0.18759,0.35137 0.0497,0.41407 0.0606,0.83476 0.0587,1.2528 -0.003,0.59161 -0.0278,1.18322 -0.0503,1.77456 -0.007,0.19262 -0.0352,0.38418 -0.0558,0.576 -0.0317,0.29369 -0.0929,0.58711 -0.091,0.88027 0.002,0.30215 0.0328,0.61145 0.1061,0.90408 0.23283,0.92789 0.72602,1.68725 1.53432,2.22303 0.49715,0.3294 1.04722,0.49556 1.651,0.52705 0.041,-0.13864 0.0775,-0.26961 0.11801,-0.39926 z m -0.9488,-7.96052 c -0.10636,-0.22331 -0.0455,-0.40825 0.20109,-0.49398 0.0601,-0.0212 0.12197,-0.0437 0.18441,-0.0497 0.0857,-0.008 0.17304,-0.002 0.25982,-0.002 0.31274,0.002 0.61357,0.0452 0.8718,0.24421 0.16563,0.12753 0.21008,0.29686 0.10293,0.47069 -0.15214,0.2466 -0.38418,0.37042 -0.66913,0.39423 -0.449,0.0373 -0.76412,-0.17198 -0.95092,-0.56329 z m 12.446,-0.0815 c 0.036,-0.29739 0.0648,-0.59558 0.1016,-0.89297 0.0148,-0.11959 -0.0481,-0.15187 -0.14843,-0.15478 -0.31538,-0.009 -0.63076,-0.0198 -0.94615,-0.0257 -0.3556,-0.006 -0.70167,0.0508 -1.03081,0.186 -0.36513,0.15028 -0.64321,0.39105 -0.75671,0.78846 a 2.3923625,2.3923625 0 0 0 -0.0775,0.90223 5.3207708,5.3207708 0 0 0 0.31565,1.36948 c 0.22066,0.58764 0.45164,1.17501 0.7276,1.73805 0.37386,0.76226 0.79692,1.50019 1.19406,2.25081 0.1061,0.20029 0.19527,0.40931 0.30586,0.6432 a 3.6467521,3.6467521 0 0 0 0.35745,-1.48749 c 0.0109,-0.42598 -0.0233,-0.85381 -0.0481,-1.28005 -0.0156,-0.26088 -0.0524,-0.52017 -0.0778,-0.78052 -0.0354,-0.36275 -0.0892,-0.72522 -0.0974,-1.08876 -0.008,-0.36963 0.018,-0.74136 0.0497,-1.11046 0.0299,-0.35401 0.0884,-0.70511 0.13097,-1.05754 z m -0.71146,-0.28628 c -0.11721,0.32358 -0.36777,0.50615 -0.69268,0.55986 -0.30295,0.0497 -0.56833,-0.0622 -0.7657,-0.30374 -0.1405,-0.17198 -0.0868,-0.37571 0.12382,-0.49187 0.24183,-0.13387 0.50774,-0.16774 0.82127,-0.18811 0.0852,0.0156 0.21352,0.0286 0.33549,0.0635 0.17701,0.05 0.24236,0.18309 0.1778,0.36036 z m -9.37207,9.96421 c -0.1733,-0.14156 -0.40243,-0.14976 -0.56727,0.006 -0.20452,0.19314 -0.38444,0.41407 -0.56435,0.63182 -0.2077,0.25162 -0.40244,0.51329 -0.67046,0.70829 -0.38999,0.28337 -0.84455,0.40085 -1.30148,0.51197 -0.36328,0.0884 -0.72814,0.17039 -1.09247,0.25532 l -0.005,0.0471 c 0.10822,0.05 0.21299,0.11245 0.3257,0.14817 0.55563,0.17595 1.12078,0.26353 1.70789,0.21378 0.42386,-0.036 0.82762,-0.12832 1.2102,-0.30982 0.52652,-0.24951 0.9316,-0.64479 1.27609,-1.10464 0.0577,-0.0767 0.0839,-0.19023 0.0907,-0.28919 0.0236,-0.34951 -0.15399,-0.60933 -0.41011,-0.81835 z m 13.69245,0.13917 c -0.44715,0.0479 -0.89482,0.0987 -1.34329,0.12435 -0.21643,0.0124 -0.43603,-0.0288 -0.65458,-0.0466 -0.36645,-0.0296 -0.72416,-0.11112 -1.03399,-0.30691 -0.17939,-0.11298 -0.32835,-0.12568 -0.51885,-0.0617 -0.27199,0.0916 -0.49398,0.23071 -0.55959,0.52546 -0.0447,0.19923 -0.0608,0.4056 -0.0788,0.6096 -0.003,0.036 0.0415,0.10213 0.0759,0.11112 0.20981,0.0553 0.42069,0.12065 0.63526,0.13997 0.26353,0.0238 0.53181,0.0161 0.79719,0.003 0.28655,-0.0143 0.57494,-0.0328 0.85725,-0.0804 0.66543,-0.11166 1.30916,-0.29369 1.88092,-0.67099 0.20612,-0.13626 0.41037,-0.27543 0.61516,-0.41327 l -0.0169,-0.0291 c -0.21855,0.0325 -0.43603,0.0722 -0.65564,0.0955 z"
         id="path1-6"
         style="stroke-width:0.264583" /></g></g></svg>
