<svg width="259" height="97" viewBox="0 0 259 97" fill="none" xmlns="http://www.w3.org/2000/svg">
<path fill-rule="evenodd" clip-rule="evenodd" d="M20.0964 29.5131C19.5933 29.5131 19.4691 29.2605 19.7196 28.8858L22.3551 25.4967C22.6035 25.1199 23.2329 24.8694 23.7339 24.8694H68.5293C69.0323 24.8694 69.1566 25.2462 68.9061 25.623L66.7736 28.8858C66.5231 29.2605 65.8958 29.6373 65.519 29.6373L20.0964 29.5131ZM1.14888 41.0551C0.647862 41.0551 0.521573 40.8067 0.772081 40.4278L3.40759 37.0408C3.6581 36.664 4.2854 36.4134 4.78849 36.4134H62.0036C62.5047 36.4134 62.7572 36.7902 62.6309 37.167L61.6268 40.1773C61.5026 40.6804 60.9995 40.9309 60.4985 40.9309L1.14888 41.0551ZM31.5121 52.5992C31.0111 52.5992 30.8868 52.2224 31.1374 51.8456L32.893 48.709C33.1456 48.3322 33.6466 47.9575 34.1497 47.9575H59.2418C59.7449 47.9575 59.9954 48.3322 59.9954 48.8353L59.747 51.8456C59.747 52.3486 59.2439 52.7254 58.8671 52.7254L31.5121 52.5992ZM161.755 27.2544C153.849 29.2626 148.454 30.7677 140.676 32.7738C138.792 33.2769 138.667 33.4011 137.036 31.5192C135.154 29.3868 133.773 28.0059 131.14 26.7513C123.233 22.8633 115.579 23.9916 108.428 28.6353C99.8966 34.1547 95.5054 42.3097 95.6297 52.4729C95.7539 62.5118 102.656 70.7931 112.569 72.174C121.101 73.3023 128.254 70.29 133.899 63.8927C135.028 62.5118 136.032 61.0067 137.286 59.249H113.07C110.437 59.249 109.809 57.6176 110.687 55.4852C112.318 51.5951 115.329 45.0715 117.084 41.8087C117.463 41.0551 118.341 39.8005 120.223 39.8005H165.894C165.646 43.1896 165.646 46.5766 165.142 49.9657C163.762 58.9985 160.375 67.2797 154.853 74.5569C145.818 86.4777 134.026 93.8791 119.093 95.8873C106.797 97.5187 95.3792 95.1337 85.3423 87.6061C76.0569 80.5794 70.788 71.2941 69.4071 59.7521C67.7757 46.0756 71.79 33.7779 80.0713 22.9875C88.9798 11.3192 100.774 3.91576 115.204 1.28025C126.999 -0.852172 138.291 0.528721 148.454 7.42907C155.104 11.8202 159.871 17.8427 163.008 25.1199C163.762 26.2503 163.261 26.8776 161.753 27.2523L161.755 27.2544Z" fill="white"/>
<path d="M203.286 96.6409C191.868 96.3883 181.452 93.1276 172.67 85.5978C165.267 79.2006 160.625 71.0436 159.12 61.3814C156.861 47.2039 160.749 34.6557 169.283 23.4905C178.442 11.4434 189.483 5.17035 204.416 2.53484C217.213 0.2782 229.26 1.53281 240.175 8.93418C250.087 15.7103 256.234 24.8694 257.866 36.9145C259.998 53.8537 255.106 67.6565 243.435 79.4511C235.154 87.8566 224.991 93.1276 213.323 95.5105C209.936 96.1378 206.547 96.2641 203.286 96.6409ZM233.148 45.9493C233.024 44.3179 233.024 43.0633 232.771 41.8087C230.515 29.3868 219.095 22.3602 207.176 25.122C195.506 27.7554 187.978 35.1588 185.218 46.9534C182.96 56.7398 187.728 66.6524 196.76 70.6668C203.663 73.6791 210.563 73.3023 217.213 69.9152C227.126 64.7705 232.521 56.7398 233.148 45.9493Z" fill="white"/>
</svg>
