<svg width="200" height="200" viewBox="0 0 200 200" fill="none" xmlns="http://www.w3.org/2000/svg">
<path d="M0.1875 99.8564V199.466H199.406V0.24707H0.1875V99.8564ZM160.726 91.8877C165.497 92.995 169.834 95.4905 173.189 99.0596C175.036 100.982 176.642 103.123 177.97 105.435C177.97 105.69 169.364 111.507 164.121 114.758C163.929 114.886 163.164 114.057 162.32 112.798C161.362 111.146 160.002 109.764 158.367 108.78C156.731 107.796 154.872 107.243 152.964 107.172C146.924 106.757 143.035 109.929 143.067 115.141C143.017 116.438 143.314 117.725 143.928 118.87C145.251 121.627 147.721 123.269 155.467 126.615C169.731 132.751 175.835 136.8 179.628 142.553C183.867 148.928 184.807 159.224 181.939 166.842C178.751 175.129 170.942 180.755 159.897 182.62C154.853 183.198 149.756 183.144 144.725 182.46C137.046 181.215 129.963 177.559 124.5 172.021C122.667 169.997 119.097 164.722 119.32 164.34C119.902 163.908 120.515 163.519 121.153 163.176L128.484 158.969L134.206 155.654L135.401 157.423C137.419 160.308 139.986 162.767 142.956 164.658C149.331 168.005 158.033 167.543 162.336 163.67C163.78 162.251 164.682 160.37 164.883 158.355C165.084 156.34 164.571 154.318 163.435 152.641C161.842 150.426 158.654 148.561 149.745 144.673C139.465 140.242 135.035 137.501 130.987 133.134C128.459 130.252 126.594 126.852 125.52 123.173C124.719 118.969 124.601 114.664 125.169 110.423C127.289 100.494 134.732 93.5611 145.601 91.5052C150.635 90.8824 155.734 91.0221 160.726 91.9196V91.8877ZM113.965 100.239V108.399H88.0987V182.078H69.7547V108.383H43.8244V100.414C43.7548 97.671 43.8292 94.926 44.0475 92.1905C44.1431 92.063 59.985 91.9993 79.11 92.0311H113.87L113.965 100.239Z" fill="white"/>
</svg>
