<svg width="277" height="281" viewBox="0 0 277 281" fill="none" xmlns="http://www.w3.org/2000/svg">
<path d="M22.9324 31.6407L32.4094 137.015L74.9356 148.361L117.58 137.229L127.068 31.6407H22.9324ZM107.355 55.6302L106.761 62.4669L106.5 65.6251H56.6145L57.8063 79.6876H105.314L104.996 82.3021L101.932 116.18L101.707 118.16L75 125.349V125.343L74.9684 125.357L48.2766 118.424L46.4649 98.4376H59.5524L60.4793 108.352L74.993 112.03L75 111.756V111.77L89.5453 108.666L91.0641 92.5782H45.8824L42.6785 56.4423L42.3656 52.7345H107.667L107.355 55.6302ZM32.7609 1.90674H39.3492V8.41768H45.3774V1.90674H51.9668V21.62H45.3774V15.0188H39.3504V21.62H32.7609V1.90674ZM60.6305 8.44463H54.8297V1.90674H73.0231V8.44463H67.2199V21.62H60.6305V8.44463ZM75.9106 1.90674H82.7801L87.007 8.83369L91.2293 1.90674H98.1023V21.62H91.5387V11.8489L87.007 18.8579H86.8922L82.357 11.8489V21.62H75.9094V1.90674H75.9106ZM101.382 1.90674H107.973V15.1044H117.239V21.6212H101.382V1.90674Z" fill="white"/>
<path d="M150.051 32.4688L159.507 138.515L201.936 150.293L244.483 138.5L253.949 32.4688H150.051ZM231.156 91.6344L228.402 117.289L228.413 119.486L202 126.863V126.864L201.979 126.882L175.355 119.587L173.554 99.2656H186.61L187.536 109.538L202.005 113.4L202 113.417V113.38L216.524 109.284L218.057 92.2344H187.697L187.437 89.4746L186.844 82.857L186.534 79.3438H219.213L220.401 66.4531H170.628L170.366 63.4191L169.773 56.3527L169.463 52.3906H234.616L234.303 56.2977L231.156 91.6344ZM231.297 18.8445L222.919 9.03125H231.297V3.17188H212.547V8.28477L222.379 17.2344H212.547V23.0938H231.297V18.8445ZM209.031 18.8445L201.054 9.03125H209.031V3.17188H191.453V8.28477L200.515 17.2344H191.453V23.0938H209.031V18.8445ZM187.938 17.2344H178.562V9.03125H187.938V3.17188H171.531V23.0938H187.938V17.2344Z" fill="white"/>
<path d="M83.875 161.938V279.125H201.062V161.938H83.875ZM145.862 261.793C144.132 265.308 140.83 267.617 137.004 268.732C131.125 270.082 125.502 269.312 121.319 266.802C118.519 265.084 116.333 262.44 114.849 259.394L123.774 253.929C123.852 253.962 124.086 254.385 124.399 254.933C125.538 256.84 126.519 258.19 128.448 259.137C130.344 259.784 134.506 260.198 136.113 256.862C137.094 255.165 136.782 249.711 136.782 243.676C136.781 234.193 136.825 224.75 136.825 215.375H147.802C147.802 225.688 147.858 235.454 147.802 245.518C147.826 251.686 148.361 257.186 145.862 261.793ZM191.4 258.692C187.584 271.744 166.31 272.168 157.809 263.545C156.013 261.515 154.887 260.455 153.815 258.112C158.333 255.513 158.333 255.513 162.729 252.97C165.117 256.64 167.325 258.658 171.297 259.484C176.686 260.143 182.107 258.291 180.891 252.567C179.642 247.893 169.857 246.756 163.198 241.757C156.438 237.217 154.853 226.184 160.409 219.881C162.26 217.549 165.418 215.809 168.731 214.973L172.188 214.526C178.827 214.392 182.976 216.145 186.022 219.546C186.87 220.405 187.562 221.331 188.855 223.338C185.319 225.592 185.33 225.57 180.265 228.85C179.183 226.519 177.388 225.057 175.49 224.421C172.545 223.528 168.83 224.499 168.06 227.611C167.792 228.57 167.848 229.463 168.272 231.047C169.466 233.769 173.471 234.952 177.063 236.603C187.405 240.797 190.897 245.294 191.756 250.647C192.583 255.256 191.556 258.246 191.4 258.692Z" fill="white"/>
</svg>
